<svg width="26" height="26" viewBox="0 0 26 26" fill="none" xmlns="http://www.w3.org/2000/svg">
<path d="M9.75 21.9375C9.75 22.2589 9.6547 22.5731 9.47614 22.8403C9.29758 23.1075 9.04379 23.3158 8.74686 23.4388C8.44993 23.5618 8.1232 23.594 7.80798 23.5313C7.49276 23.4686 7.20321 23.3138 6.97595 23.0865C6.74869 22.8593 6.59392 22.5697 6.53122 22.2545C6.46852 21.9393 6.5007 21.6126 6.6237 21.3156C6.74669 21.0187 6.95497 20.7649 7.2222 20.5864C7.48943 20.4078 7.80361 20.3125 8.125 20.3125C8.55598 20.3125 8.9693 20.4837 9.27405 20.7885C9.57879 21.0932 9.75 21.5065 9.75 21.9375ZM18.6875 20.3125C18.3661 20.3125 18.0519 20.4078 17.7847 20.5864C17.5175 20.7649 17.3092 21.0187 17.1862 21.3156C17.0632 21.6126 17.031 21.9393 17.0937 22.2545C17.1564 22.5697 17.3112 22.8593 17.5385 23.0865C17.7657 23.3138 18.0553 23.4686 18.3705 23.5313C18.6857 23.594 19.0124 23.5618 19.3094 23.4388C19.6063 23.3158 19.8601 23.1075 20.0386 22.8403C20.2172 22.5731 20.3125 22.2589 20.3125 21.9375C20.3125 21.5065 20.1413 21.0932 19.8365 20.7885C19.5318 20.4837 19.1185 20.3125 18.6875 20.3125ZM23.299 7.53573L20.618 16.9196C20.471 17.4281 20.1632 17.8752 19.7406 18.1939C19.3181 18.5126 18.8036 18.6858 18.2743 18.6875H8.53816C8.00888 18.6858 7.49441 18.5126 7.07187 18.1939C6.64933 17.8752 6.34149 17.4281 6.1945 16.9196L3.51782 7.55107C3.51478 7.54117 3.51194 7.53122 3.50929 7.52121L2.52109 4.0625H0.8125C0.597012 4.0625 0.390349 3.9769 0.237976 3.82452C0.0856024 3.67215 0 3.46549 0 3.25C0 3.03451 0.0856024 2.82785 0.237976 2.67548C0.390349 2.5231 0.597012 2.4375 0.8125 2.4375H2.52098C2.87383 2.43864 3.2168 2.5541 3.4985 2.76657C3.78021 2.97904 3.98547 3.27708 4.08352 3.61603L4.9075 6.5H22.5178C22.6436 6.5 22.7676 6.5292 22.8802 6.58529C22.9928 6.64138 23.0908 6.72283 23.1665 6.82323C23.2422 6.92363 23.2936 7.04025 23.3166 7.16388C23.3396 7.28752 23.3336 7.41481 23.299 7.53573ZM21.4407 8.125H5.37184L7.75704 16.4732C7.80603 16.6427 7.90863 16.7917 8.04946 16.898C8.19028 17.0042 8.36175 17.0619 8.53816 17.0625H18.2743C18.4507 17.0619 18.6222 17.0042 18.763 16.898C18.9039 16.7917 19.0065 16.6427 19.0555 16.4732L21.4407 8.125Z" fill="black"/>
</svg>
