<svg width="24" height="22" viewBox="0 0 24 22" fill="none" xmlns="http://www.w3.org/2000/svg">
<path d="M22.5418 10.6888L12.0834 0.238016C12.0081 0.162566 11.9187 0.102706 11.8202 0.0618645C11.7217 0.0210226 11.6162 0 11.5096 0C11.403 0 11.2974 0.0210226 11.199 0.0618645C11.1005 0.102706 11.011 0.162566 10.9357 0.238016L0.477344 10.6888C0.172656 10.9935 0 11.4074 0 11.839C0 12.7353 0.728711 13.464 1.625 13.464H2.72695V20.9212C2.72695 21.3706 3.09004 21.7337 3.53945 21.7337H9.88457V16.0462H12.7283V21.7337H19.4797C19.9291 21.7337 20.2922 21.3706 20.2922 20.9212V13.464H21.3941C21.8258 13.464 22.2396 13.2939 22.5443 12.9866C23.1766 12.3519 23.1766 11.3236 22.5418 10.6888Z" fill="black"/>
</svg>
