<svg width="343" height="377" viewBox="0 0 343 377" fill="none" xmlns="http://www.w3.org/2000/svg">
<rect width="343" height="377" fill="white"/>
<path d="M25.334 17.602C26.595 17.602 27.024 17.628 27.102 17.628C27.245 17.628 27.258 17.615 27.258 17.485V16.341C27.258 16.211 27.245 16.198 27.102 16.198C27.024 16.198 26.595 16.224 25.334 16.224H19.666C18.405 16.224 17.976 16.198 17.898 16.198C17.768 16.198 17.755 16.211 17.755 16.341V17.485C17.755 17.615 17.768 17.628 17.898 17.628C17.976 17.628 18.405 17.602 19.666 17.602H25.334ZM26.478 25.987C27.635 25.987 28.025 26.013 28.103 26.013C28.233 26.013 28.246 26 28.246 25.87V24.726C28.246 24.596 28.233 24.583 28.103 24.583C28.025 24.583 27.635 24.609 26.478 24.609H18.522C17.365 24.609 16.962 24.583 16.884 24.583C16.754 24.583 16.741 24.596 16.741 24.726V25.87C16.741 26 16.754 26.013 16.884 26.013C16.962 26.013 17.365 25.987 18.522 25.987H26.478ZM24.528 21.606C25.776 21.606 26.218 21.632 26.296 21.632C26.426 21.632 26.439 21.619 26.439 21.489V20.358C26.439 20.228 26.426 20.215 26.296 20.215C26.218 20.215 25.776 20.241 24.528 20.241H20.472C19.224 20.241 18.782 20.215 18.704 20.215C18.574 20.215 18.561 20.228 18.561 20.358V21.489C18.561 21.619 18.574 21.632 18.704 21.632C18.782 21.632 19.224 21.606 20.472 21.606H24.528ZM34.447 19.409C33.42 21.476 31.535 23.348 29.65 24.388C29.923 24.622 30.17 24.921 30.378 25.298C30.495 25.493 30.547 25.584 30.625 25.584C30.69 25.584 30.768 25.545 30.911 25.441C32.523 24.271 34.057 22.62 35.006 20.683C34.993 24.011 34.902 26.403 34.902 26.897C34.902 27.014 34.915 27.027 35.058 27.027H36.254C36.397 27.027 36.41 27.014 36.41 26.897C36.41 26.39 36.306 23.894 36.306 20.488C37.333 22.49 38.906 24.167 40.7 25.415C40.83 25.506 40.908 25.545 40.973 25.545C41.064 25.545 41.116 25.441 41.22 25.233C41.415 24.83 41.649 24.518 41.883 24.284C39.803 23.101 38.048 21.463 36.839 19.409H39.595C40.778 19.409 41.181 19.435 41.259 19.435C41.389 19.435 41.402 19.422 41.402 19.279V18.226C41.402 18.083 41.389 18.07 41.259 18.07C41.181 18.07 40.778 18.096 39.595 18.096H36.371V16.822C36.371 16.159 36.384 15.873 36.423 15.73C36.449 15.626 36.514 15.509 36.514 15.392C36.514 15.327 36.423 15.275 36.306 15.262C35.851 15.21 35.344 15.184 34.85 15.171C34.941 15.678 34.941 16.133 34.941 16.861V18.096H31.938C30.755 18.096 30.352 18.07 30.274 18.07C30.131 18.07 30.118 18.083 30.118 18.226V19.279C30.118 19.422 30.131 19.435 30.274 19.435C30.352 19.435 30.755 19.409 31.938 19.409H34.447ZM50.307 23.166C51.503 22.633 52.621 22.009 53.453 21.385C53.778 21.151 53.869 21.086 54.012 21.034C54.129 20.982 54.181 20.93 54.181 20.839C54.181 20.761 54.155 20.709 54.064 20.618C53.83 20.371 53.518 20.124 53.102 19.825C52.959 20.033 52.79 20.215 52.517 20.423C51.893 20.917 51.139 21.385 50.307 21.788V20.241C50.307 19.669 50.333 19.565 50.398 19.448C50.463 19.331 50.502 19.292 50.502 19.188C50.502 19.11 50.424 19.058 50.255 19.032C49.761 18.967 49.397 18.954 48.89 18.941C48.942 19.292 48.955 19.643 48.955 20.202V25.35C48.955 26.195 49.176 26.403 49.605 26.572C50.008 26.728 50.593 26.78 51.633 26.78C52.933 26.78 53.544 26.676 53.999 26.364C54.441 26.065 54.649 25.61 54.74 24.622C54.766 24.284 54.766 24.284 54.441 24.206C54.116 24.102 53.752 23.959 53.479 23.764C53.453 24.661 53.401 25.103 53.102 25.311C52.855 25.493 52.413 25.532 51.672 25.532C51.204 25.532 50.827 25.519 50.606 25.454C50.385 25.389 50.307 25.285 50.307 24.908V23.166ZM45.042 16.471C43.885 16.471 43.482 16.445 43.404 16.445C43.274 16.445 43.261 16.458 43.261 16.575V17.524C43.261 17.667 43.274 17.68 43.404 17.68C43.482 17.68 43.885 17.654 45.042 17.654H46.433C46.42 18.187 46.407 18.447 46.407 18.512C46.407 18.655 46.42 18.668 46.55 18.668H47.59C47.72 18.668 47.733 18.655 47.733 18.512C47.733 18.447 47.707 18.187 47.707 17.654H50.138C50.125 18.187 50.112 18.434 50.112 18.512C50.112 18.642 50.125 18.655 50.255 18.655H51.295C51.425 18.655 51.438 18.642 51.438 18.512C51.438 18.447 51.412 18.187 51.412 17.654H53.024C54.181 17.654 54.571 17.68 54.649 17.68C54.766 17.68 54.779 17.667 54.779 17.524V16.575C54.779 16.458 54.766 16.445 54.649 16.445C54.571 16.445 54.181 16.471 53.024 16.471H51.412V16.393C51.412 15.912 51.438 15.665 51.49 15.574C51.542 15.483 51.568 15.444 51.568 15.379C51.568 15.275 51.49 15.249 51.373 15.236C50.983 15.184 50.541 15.158 50.06 15.145C50.125 15.522 50.138 15.938 50.138 16.445V16.471H47.707V16.406C47.707 15.925 47.733 15.665 47.785 15.574C47.837 15.496 47.863 15.444 47.863 15.379C47.863 15.288 47.785 15.249 47.668 15.236C47.278 15.197 46.836 15.158 46.355 15.145C46.42 15.522 46.433 15.951 46.433 16.471H45.042ZM45.471 25.207C45.471 26.234 45.445 26.715 45.445 26.806C45.445 26.923 45.458 26.936 45.588 26.936H46.68C46.823 26.936 46.836 26.923 46.836 26.806C46.836 26.728 46.81 26.234 46.81 25.207V20.826C46.966 20.592 47.122 20.345 47.252 20.085C47.369 19.877 47.46 19.76 47.551 19.695C47.655 19.63 47.707 19.578 47.707 19.487C47.707 19.396 47.642 19.344 47.499 19.266C47.187 19.11 46.901 18.967 46.446 18.798C46.355 19.084 46.264 19.266 46.134 19.487C45.497 20.553 44.392 21.775 43.118 22.62C43.313 22.828 43.469 23.075 43.664 23.478C43.742 23.634 43.794 23.712 43.859 23.712C43.937 23.712 44.015 23.647 44.158 23.543C44.691 23.114 45.133 22.711 45.497 22.282C45.484 22.815 45.471 23.374 45.471 23.894V25.207ZM58.588 21.216H65.751C66.986 21.216 67.402 21.242 67.48 21.242C67.61 21.242 67.623 21.229 67.623 21.099V20.358C67.623 20.228 67.61 20.215 67.48 20.215C67.402 20.215 66.986 20.241 65.751 20.241H59.186C57.951 20.241 57.522 20.215 57.444 20.215C57.314 20.215 57.301 20.228 57.301 20.358C57.301 20.423 57.327 20.878 57.327 21.84C57.327 22.958 57.288 23.491 57.132 24.167C56.963 24.817 56.638 25.415 56.144 25.987C56.404 26.143 56.677 26.416 56.924 26.754C57.028 26.897 57.093 26.962 57.158 26.962C57.236 26.962 57.314 26.884 57.418 26.728C57.847 26.052 58.172 25.298 58.367 24.505L58.458 24.024H59.745V25.662C59.68 25.662 59.615 25.675 59.55 25.675C59.069 25.714 58.783 25.727 58.354 25.727C58.419 26.143 58.497 26.494 58.601 26.858C58.653 27.001 58.718 27.04 58.77 27.04C58.848 27.04 58.9 27.014 58.965 26.975C59.043 26.923 59.212 26.884 59.433 26.858C60.421 26.728 61.539 26.546 62.592 26.312C62.995 26.234 62.995 26.234 63.008 25.818C63.034 25.61 63.06 25.389 63.099 25.194C64.139 26.143 65.608 26.65 67.285 26.897C67.688 26.962 67.714 26.962 67.844 26.65C67.987 26.312 68.182 25.987 68.39 25.779C67.363 25.714 66.453 25.571 65.686 25.337C65.946 25.168 66.167 24.999 66.336 24.869C66.518 24.726 66.596 24.674 66.687 24.648C66.778 24.622 66.804 24.583 66.804 24.505C66.804 24.44 66.778 24.401 66.713 24.375C66.453 24.284 66.037 24.128 65.699 24.024H65.933C67.207 24.024 67.649 24.05 67.727 24.05C67.857 24.05 67.87 24.037 67.87 23.907V23.166C67.87 23.036 67.857 23.023 67.727 23.023C67.649 23.023 67.207 23.049 65.933 23.049H58.562C58.575 22.737 58.588 22.425 58.588 22.139V21.216ZM61.032 24.024H62.176C62.423 24.466 62.722 24.843 63.073 25.168C62.449 25.298 61.721 25.415 61.032 25.506V24.024ZM65.595 24.024C65.504 24.18 65.387 24.31 65.283 24.427C65.101 24.609 64.919 24.778 64.698 24.947C64.23 24.7 63.84 24.401 63.541 24.024H65.595ZM64.139 16.016C64.139 15.691 64.165 15.587 64.204 15.496C64.23 15.431 64.256 15.366 64.256 15.301C64.256 15.249 64.204 15.197 64.087 15.184C63.736 15.145 63.398 15.106 62.917 15.093C62.956 15.392 62.969 15.6 62.969 16.016H61.643C61.643 15.73 61.669 15.6 61.708 15.509C61.734 15.444 61.773 15.366 61.773 15.301C61.773 15.249 61.721 15.197 61.604 15.184C61.266 15.145 60.902 15.119 60.421 15.106C60.473 15.405 60.486 15.626 60.486 16.016H59.68C58.419 16.016 57.964 15.99 57.886 15.99C57.756 15.99 57.743 16.003 57.743 16.133C57.743 16.224 57.769 16.497 57.769 17.186V18.564C57.769 19.24 57.743 19.526 57.743 19.604C57.743 19.747 57.756 19.76 57.886 19.76C57.964 19.76 58.419 19.734 59.68 19.734H65.023C66.297 19.734 66.739 19.76 66.817 19.76C66.947 19.76 66.96 19.747 66.96 19.604C66.96 19.526 66.934 19.24 66.934 18.564V17.186C66.934 16.497 66.96 16.211 66.96 16.133C66.96 16.003 66.947 15.99 66.817 15.99C66.739 15.99 66.297 16.016 65.023 16.016H64.139ZM65.647 18.889H64.139V18.226H65.647V18.889ZM59.043 18.889V18.226H60.486V18.889H59.043ZM65.647 16.861V17.485H64.139V16.861H65.647ZM59.043 17.485V16.861H60.486V17.485H59.043ZM61.643 18.889V18.226H62.969V18.889H61.643ZM61.643 16.861H62.969V17.485H61.643V16.861ZM64.672 22.555C65.881 22.555 66.297 22.581 66.375 22.581C66.518 22.581 66.531 22.568 66.531 22.438V21.814C66.531 21.697 66.518 21.684 66.375 21.684C66.297 21.684 65.881 21.71 64.672 21.71H61.331C60.109 21.71 59.693 21.684 59.615 21.684C59.485 21.684 59.472 21.697 59.472 21.84V22.438C59.472 22.568 59.485 22.581 59.615 22.581C59.693 22.581 60.109 22.555 61.331 22.555H64.672ZM76.177 19.344C76.931 22.295 78.127 24.492 80.324 26.104C80.467 26.195 80.545 26.26 80.597 26.26C80.688 26.26 80.74 26.169 80.857 25.961C81.052 25.597 81.286 25.337 81.559 25.064C80.285 24.323 79.336 23.452 78.634 22.373C79.011 22.074 79.414 21.71 79.804 21.333C80.077 21.06 80.207 20.878 80.376 20.813C80.454 20.787 80.545 20.722 80.545 20.618C80.545 20.54 80.493 20.462 80.35 20.358C80.09 20.124 79.804 19.903 79.401 19.63C79.258 19.864 79.063 20.163 78.842 20.41C78.53 20.774 78.283 21.021 78.036 21.255C77.776 20.683 77.568 20.046 77.399 19.344C78.608 19.344 79.037 19.37 79.115 19.37C79.245 19.37 79.258 19.357 79.258 19.214V18.395C79.258 18.252 79.245 18.239 79.115 18.239C79.037 18.239 78.608 18.265 77.36 18.265H73.668C72.433 18.265 72.004 18.239 71.926 18.239C71.783 18.239 71.77 18.252 71.77 18.395V19.214C71.77 19.357 71.783 19.37 71.926 19.37C72.004 19.37 72.433 19.344 73.668 19.344H74.344C73.252 19.929 71.991 20.371 70.275 20.735C70.535 20.969 70.665 21.112 70.873 21.502C71.016 21.749 71.029 21.762 71.406 21.658C72.42 21.346 73.304 20.995 74.201 20.527C74.344 20.709 74.461 20.891 74.578 21.073C73.174 21.97 71.835 22.581 69.846 23.023C70.054 23.218 70.249 23.452 70.418 23.751C70.522 23.946 70.574 24.024 70.665 24.024C70.73 24.024 70.821 23.985 70.977 23.933C72.498 23.4 73.824 22.802 75.085 21.97C75.189 22.178 75.267 22.386 75.345 22.594C73.681 23.907 71.9 24.791 69.573 25.467C69.846 25.701 69.989 25.857 70.184 26.221C70.288 26.429 70.34 26.507 70.444 26.507C70.509 26.507 70.6 26.468 70.756 26.416C72.563 25.74 74.071 24.947 75.605 23.777C75.631 23.998 75.644 24.245 75.644 24.479C75.644 25.571 75.397 25.727 74.851 25.727C74.578 25.727 74.071 25.714 73.499 25.649C73.668 25.883 73.785 26.208 73.876 26.585C73.941 26.91 73.941 26.91 74.292 26.936C74.526 26.962 74.747 26.962 74.968 26.962C76.489 26.962 76.931 26.351 76.931 24.531C76.931 22.932 76.385 21.346 75.228 19.929C75.514 19.76 75.813 19.565 76.112 19.344H76.177ZM76.099 16.198V16.172C76.099 15.795 76.125 15.626 76.164 15.522C76.203 15.418 76.242 15.353 76.242 15.262C76.242 15.21 76.177 15.158 76.047 15.145C75.592 15.106 75.111 15.08 74.643 15.067C74.721 15.392 74.734 15.743 74.734 16.172V16.198H71.887C70.691 16.198 70.262 16.172 70.171 16.172C70.041 16.172 70.028 16.185 70.028 16.315C70.028 16.406 70.054 16.614 70.054 17.043V17.472C70.054 18.577 70.028 18.785 70.028 18.863C70.028 18.993 70.041 19.006 70.171 19.006H71.237C71.367 19.006 71.38 18.993 71.38 18.863V17.329H79.648V18.863C79.648 18.993 79.661 19.006 79.791 19.006H80.857C80.987 19.006 81 18.993 81 18.863C81 18.785 80.974 18.577 80.974 17.472V16.939C80.974 16.614 81 16.393 81 16.315C81 16.185 80.987 16.172 80.857 16.172C80.766 16.172 80.337 16.198 79.141 16.198H76.099Z" fill="#4B4948"/>
<path d="M163.764 19.496C163.92 18.344 164.496 17.768 165.372 17.768C166.212 17.768 166.788 18.32 166.788 19.208C166.788 19.976 166.512 20.48 165.276 21.632C163.968 22.844 163.2 23.876 162.708 25.04V25.784H167.832V24.956H163.704C164.1 24.08 164.712 23.3 166.008 22.16C167.46 20.888 167.82 20.168 167.82 19.208C167.82 17.78 166.812 16.94 165.384 16.94C164.04 16.94 163.032 17.744 162.78 19.268L163.764 19.496ZM172.244 16.94C170.564 16.94 169.592 18.248 169.592 21.416C169.592 24.596 170.516 25.94 172.22 25.94C173.924 25.94 174.86 24.572 174.86 21.392C174.86 18.224 173.924 16.94 172.244 16.94ZM172.244 17.768C173.324 17.768 173.84 18.716 173.84 21.404C173.84 24.092 173.312 25.112 172.22 25.112C171.14 25.112 170.612 24.092 170.612 21.404C170.612 18.704 171.176 17.768 172.244 17.768ZM177.556 19.496C177.712 18.344 178.288 17.768 179.164 17.768C180.004 17.768 180.58 18.32 180.58 19.208C180.58 19.976 180.304 20.48 179.068 21.632C177.76 22.844 176.992 23.876 176.5 25.04V25.784H181.624V24.956H177.496C177.892 24.08 178.504 23.3 179.8 22.16C181.252 20.888 181.612 20.168 181.612 19.208C181.612 17.78 180.604 16.94 179.176 16.94C177.832 16.94 176.824 17.744 176.572 19.268L177.556 19.496ZM184.453 19.496C184.609 18.344 185.185 17.768 186.061 17.768C186.901 17.768 187.477 18.32 187.477 19.208C187.477 19.976 187.201 20.48 185.965 21.632C184.657 22.844 183.889 23.876 183.397 25.04V25.784H188.521V24.956H184.393C184.789 24.08 185.401 23.3 186.697 22.16C188.149 20.888 188.509 20.168 188.509 19.208C188.509 17.78 187.501 16.94 186.073 16.94C184.729 16.94 183.721 17.744 183.469 19.268L184.453 19.496ZM195.165 15.932H194.493L189.777 27.02H190.449L195.165 15.932ZM198.95 16.94C197.27 16.94 196.298 18.248 196.298 21.416C196.298 24.596 197.222 25.94 198.926 25.94C200.63 25.94 201.566 24.572 201.566 21.392C201.566 18.224 200.63 16.94 198.95 16.94ZM198.95 17.768C200.03 17.768 200.546 18.716 200.546 21.404C200.546 24.092 200.018 25.112 198.926 25.112C197.846 25.112 197.318 24.092 197.318 21.404C197.318 18.704 197.882 17.768 198.95 17.768ZM206.471 17H205.655C205.043 17.42 204.347 17.792 203.615 18.032L203.783 18.908C204.455 18.656 205.055 18.356 205.511 18.044V24.98H203.771V25.784H208.103V24.98H206.471V17ZM214.975 15.932H214.303L209.587 27.02H210.259L214.975 15.932ZM218.76 16.94C217.08 16.94 216.108 18.248 216.108 21.416C216.108 24.596 217.032 25.94 218.736 25.94C220.44 25.94 221.376 24.572 221.376 21.392C221.376 18.224 220.44 16.94 218.76 16.94ZM218.76 17.768C219.84 17.768 220.356 18.716 220.356 21.404C220.356 24.092 219.828 25.112 218.736 25.112C217.656 25.112 217.128 24.092 217.128 21.404C217.128 18.704 217.692 17.768 218.76 17.768ZM227.828 17.084H223.508L223.304 21.944L224.12 22.064C224.36 21.344 224.924 20.936 225.596 20.936C226.532 20.936 227.12 21.68 227.12 22.976C227.12 24.332 226.484 25.124 225.512 25.124C224.744 25.124 224.228 24.728 224 23.876L223.028 24.236C223.412 25.376 224.288 25.94 225.524 25.94C227 25.94 228.152 24.824 228.152 22.94C228.152 21.236 227.108 20.12 225.764 20.12C225.08 20.12 224.468 20.468 224.144 20.984C224.168 20.684 224.204 20.3 224.216 19.988L224.312 17.912H227.828V17.084ZM236.369 21.584C235.973 22.22 235.565 22.532 235.001 22.532C234.653 22.532 234.293 22.4 233.453 22.016C232.649 21.644 232.205 21.536 231.845 21.536C231.125 21.536 230.537 22.016 230.093 23L230.513 23.24C230.885 22.604 231.329 22.292 231.797 22.292C232.145 22.292 232.505 22.4 233.261 22.772C234.125 23.18 234.545 23.288 234.977 23.288C235.685 23.288 236.213 22.916 236.765 21.848L236.369 21.584ZM239.658 19.496C239.814 18.344 240.39 17.768 241.266 17.768C242.106 17.768 242.682 18.32 242.682 19.208C242.682 19.976 242.406 20.48 241.17 21.632C239.862 22.844 239.094 23.876 238.602 25.04V25.784H243.726V24.956H239.598C239.994 24.08 240.606 23.3 241.902 22.16C243.354 20.888 243.714 20.168 243.714 19.208C243.714 17.78 242.706 16.94 241.278 16.94C239.934 16.94 238.926 17.744 238.674 19.268L239.658 19.496ZM248.138 16.94C246.458 16.94 245.486 18.248 245.486 21.416C245.486 24.596 246.41 25.94 248.114 25.94C249.818 25.94 250.754 24.572 250.754 21.392C250.754 18.224 249.818 16.94 248.138 16.94ZM248.138 17.768C249.218 17.768 249.734 18.716 249.734 21.404C249.734 24.092 249.206 25.112 248.114 25.112C247.034 25.112 246.506 24.092 246.506 21.404C246.506 18.704 247.07 17.768 248.138 17.768ZM253.45 19.496C253.606 18.344 254.182 17.768 255.058 17.768C255.898 17.768 256.474 18.32 256.474 19.208C256.474 19.976 256.198 20.48 254.962 21.632C253.654 22.844 252.886 23.876 252.394 25.04V25.784H257.518V24.956H253.39C253.786 24.08 254.398 23.3 255.694 22.16C257.146 20.888 257.506 20.168 257.506 19.208C257.506 17.78 256.498 16.94 255.07 16.94C253.726 16.94 252.718 17.744 252.466 19.268L253.45 19.496ZM260.347 19.496C260.503 18.344 261.079 17.768 261.955 17.768C262.795 17.768 263.371 18.32 263.371 19.208C263.371 19.976 263.095 20.48 261.859 21.632C260.551 22.844 259.783 23.876 259.291 25.04V25.784H264.415V24.956H260.287C260.683 24.08 261.295 23.3 262.591 22.16C264.043 20.888 264.403 20.168 264.403 19.208C264.403 17.78 263.395 16.94 261.967 16.94C260.623 16.94 259.615 17.744 259.363 19.268L260.347 19.496ZM271.059 15.932H270.387L265.671 27.02H266.343L271.059 15.932ZM274.844 16.94C273.164 16.94 272.192 18.248 272.192 21.416C272.192 24.596 273.116 25.94 274.82 25.94C276.524 25.94 277.46 24.572 277.46 21.392C277.46 18.224 276.524 16.94 274.844 16.94ZM274.844 17.768C275.924 17.768 276.44 18.716 276.44 21.404C276.44 24.092 275.912 25.112 274.82 25.112C273.74 25.112 273.212 24.092 273.212 21.404C273.212 18.704 273.776 17.768 274.844 17.768ZM282.365 17H281.549C280.937 17.42 280.241 17.792 279.509 18.032L279.677 18.908C280.349 18.656 280.949 18.356 281.405 18.044V24.98H279.665V25.784H283.997V24.98H282.365V17ZM290.869 15.932H290.197L285.481 27.02H286.153L290.869 15.932ZM294.654 16.94C292.974 16.94 292.002 18.248 292.002 21.416C292.002 24.596 292.926 25.94 294.63 25.94C296.334 25.94 297.27 24.572 297.27 21.392C297.27 18.224 296.334 16.94 294.654 16.94ZM294.654 17.768C295.734 17.768 296.25 18.716 296.25 21.404C296.25 24.092 295.722 25.112 294.63 25.112C293.55 25.112 293.022 24.092 293.022 21.404C293.022 18.704 293.586 17.768 294.654 17.768ZM302.378 21.14C303.554 20.624 304.022 20.024 304.022 19.064C304.022 17.828 302.99 16.94 301.526 16.94C300.062 16.94 299.066 17.876 299.066 19.1C299.066 20.06 299.498 20.72 300.686 21.308C299.39 21.92 298.826 22.556 298.826 23.588C298.826 25.064 299.918 25.94 301.526 25.94C303.146 25.94 304.238 25.04 304.238 23.552C304.238 22.472 303.77 21.776 302.378 21.14ZM301.442 20.696C300.338 20.204 300.014 19.772 300.014 19.1C300.014 18.26 300.626 17.72 301.526 17.72C302.438 17.72 303.074 18.272 303.074 19.088C303.074 19.832 302.762 20.336 301.682 20.804L301.442 20.696ZM301.646 21.764C302.906 22.304 303.278 22.808 303.278 23.576C303.278 24.548 302.63 25.16 301.526 25.16C300.458 25.16 299.786 24.512 299.786 23.54C299.786 22.736 300.242 22.196 301.394 21.656L301.646 21.764Z" fill="#4B4948"/>
<rect x="29.5" y="56.5" width="284" height="288" stroke="#C4C4C4"/>
<path d="M15.7 251.02L14.4 252.22L13.84 251.55L15.81 249.92H16.66V257H15.7V251.02ZM23.4666 250.82H20.5966L20.5666 252.59C20.6133 252.57 20.68 252.55 20.7666 252.53C20.8533 252.51 20.94 252.493 21.0266 252.48C21.12 252.467 21.21 252.457 21.2966 252.45C21.3833 252.443 21.4566 252.44 21.5166 252.44C21.85 252.44 22.15 252.497 22.4166 252.61C22.69 252.723 22.9233 252.883 23.1166 253.09C23.31 253.297 23.4566 253.543 23.5566 253.83C23.6633 254.117 23.7166 254.433 23.7166 254.78C23.7166 255.133 23.65 255.453 23.5166 255.74C23.39 256.027 23.2133 256.273 22.9866 256.48C22.76 256.687 22.4966 256.847 22.1966 256.96C21.8966 257.067 21.5733 257.12 21.2266 257.12C20.7466 257.12 20.3133 256.997 19.9266 256.75C19.54 256.503 19.2633 256.15 19.0966 255.69L20.0666 255.36C20.1933 255.687 20.3633 255.923 20.5766 256.07C20.79 256.21 21.0566 256.28 21.3766 256.28C21.5633 256.28 21.74 256.247 21.9066 256.18C22.08 256.113 22.2266 256.02 22.3466 255.9C22.4733 255.773 22.5733 255.62 22.6466 255.44C22.72 255.26 22.7566 255.057 22.7566 254.83C22.7566 254.31 22.5966 253.923 22.2766 253.67C21.9633 253.41 21.5533 253.28 21.0466 253.28C20.8666 253.28 20.6366 253.313 20.3566 253.38C20.0833 253.44 19.8266 253.53 19.5866 253.65L19.6666 249.92H23.4666V250.82Z" fill="#C4C4C4"/>
<path d="M15.7 288.02L14.4 289.22L13.84 288.55L15.81 286.92H16.66V294H15.7V288.02ZM19.0966 290.46C19.0966 290.2 19.11 289.93 19.1366 289.65C19.1633 289.37 19.21 289.097 19.2766 288.83C19.35 288.557 19.4433 288.297 19.5566 288.05C19.6766 287.803 19.8266 287.59 20.0066 287.41C20.1933 287.223 20.41 287.077 20.6566 286.97C20.91 286.857 21.2033 286.8 21.5366 286.8C21.87 286.8 22.16 286.857 22.4066 286.97C22.66 287.077 22.8766 287.223 23.0566 287.41C23.2433 287.59 23.3933 287.803 23.5066 288.05C23.6266 288.297 23.72 288.557 23.7866 288.83C23.86 289.097 23.91 289.37 23.9366 289.65C23.9633 289.93 23.9766 290.2 23.9766 290.46C23.9766 290.833 23.9433 291.233 23.8766 291.66C23.81 292.087 23.6866 292.483 23.5066 292.85C23.3266 293.217 23.0766 293.52 22.7566 293.76C22.4433 294 22.0366 294.12 21.5366 294.12C21.0366 294.12 20.6266 294 20.3066 293.76C19.9933 293.52 19.7466 293.217 19.5666 292.85C19.3866 292.483 19.2633 292.087 19.1966 291.66C19.13 291.233 19.0966 290.833 19.0966 290.46ZM20.0566 290.46C20.0566 290.693 20.07 290.97 20.0966 291.29C20.13 291.61 20.1966 291.92 20.2966 292.22C20.3966 292.513 20.5433 292.763 20.7366 292.97C20.9366 293.177 21.2033 293.28 21.5366 293.28C21.87 293.28 22.1333 293.177 22.3266 292.97C22.5266 292.763 22.6766 292.513 22.7766 292.22C22.8766 291.92 22.94 291.61 22.9666 291.29C23 290.97 23.0166 290.693 23.0166 290.46C23.0166 290.3 23.01 290.12 22.9966 289.92C22.99 289.713 22.9666 289.507 22.9266 289.3C22.8933 289.087 22.8433 288.883 22.7766 288.69C22.71 288.49 22.62 288.313 22.5066 288.16C22.4 288 22.2666 287.873 22.1066 287.78C21.9466 287.687 21.7566 287.64 21.5366 287.64C21.3166 287.64 21.1266 287.687 20.9666 287.78C20.8066 287.873 20.67 288 20.5566 288.16C20.45 288.313 20.3633 288.49 20.2966 288.69C20.23 288.883 20.1766 289.087 20.1366 289.3C20.1033 289.507 20.08 289.713 20.0666 289.92C20.06 290.12 20.0566 290.3 20.0566 290.46Z" fill="#C4C4C4"/>
<path d="M17.71 324.82H14.84L14.81 326.59C14.8567 326.57 14.9233 326.55 15.01 326.53C15.0967 326.51 15.1833 326.493 15.27 326.48C15.3633 326.467 15.4533 326.457 15.54 326.45C15.6267 326.443 15.7 326.44 15.76 326.44C16.0933 326.44 16.3933 326.497 16.66 326.61C16.9333 326.723 17.1667 326.883 17.36 327.09C17.5533 327.297 17.7 327.543 17.8 327.83C17.9067 328.117 17.96 328.433 17.96 328.78C17.96 329.133 17.8933 329.453 17.76 329.74C17.6333 330.027 17.4567 330.273 17.23 330.48C17.0033 330.687 16.74 330.847 16.44 330.96C16.14 331.067 15.8167 331.12 15.47 331.12C14.99 331.12 14.5567 330.997 14.17 330.75C13.7833 330.503 13.5067 330.15 13.34 329.69L14.31 329.36C14.4367 329.687 14.6067 329.923 14.82 330.07C15.0333 330.21 15.3 330.28 15.62 330.28C15.8067 330.28 15.9833 330.247 16.15 330.18C16.3233 330.113 16.47 330.02 16.59 329.9C16.7167 329.773 16.8167 329.62 16.89 329.44C16.9633 329.26 17 329.057 17 328.83C17 328.31 16.84 327.923 16.52 327.67C16.2067 327.41 15.7967 327.28 15.29 327.28C15.11 327.28 14.88 327.313 14.6 327.38C14.3267 327.44 14.07 327.53 13.83 327.65L13.91 323.92H17.71V324.82Z" fill="#C4C4C4"/>
<path d="M321.36 265.26H321.32C321.1 265.367 320.84 265.42 320.54 265.42C320.287 265.42 320.03 265.377 319.77 265.29C319.51 265.203 319.273 265.07 319.06 264.89C318.853 264.703 318.683 264.47 318.55 264.19C318.417 263.903 318.35 263.567 318.35 263.18C318.35 262.793 318.413 262.453 318.54 262.16C318.673 261.86 318.85 261.61 319.07 261.41C319.29 261.21 319.547 261.06 319.84 260.96C320.133 260.853 320.447 260.8 320.78 260.8C321.113 260.8 321.427 260.853 321.72 260.96C322.013 261.067 322.27 261.22 322.49 261.42C322.71 261.62 322.883 261.86 323.01 262.14C323.143 262.42 323.21 262.733 323.21 263.08C323.21 263.3 323.193 263.5 323.16 263.68C323.127 263.86 323.077 264.033 323.01 264.2C322.95 264.36 322.877 264.52 322.79 264.68C322.703 264.84 322.607 265.003 322.5 265.17L320.71 268H319.58L321.36 265.26ZM322.25 263.11C322.25 262.897 322.213 262.7 322.14 262.52C322.073 262.34 321.973 262.187 321.84 262.06C321.713 261.927 321.56 261.823 321.38 261.75C321.2 261.677 321 261.64 320.78 261.64C320.56 261.64 320.36 261.677 320.18 261.75C320 261.823 319.843 261.927 319.71 262.06C319.583 262.187 319.483 262.34 319.41 262.52C319.343 262.7 319.31 262.897 319.31 263.11C319.31 263.323 319.343 263.52 319.41 263.7C319.483 263.88 319.583 264.037 319.71 264.17C319.843 264.297 320 264.397 320.18 264.47C320.36 264.543 320.56 264.58 320.78 264.58C321 264.58 321.2 264.543 321.38 264.47C321.56 264.397 321.713 264.297 321.84 264.17C321.973 264.037 322.073 263.88 322.14 263.7C322.213 263.52 322.25 263.323 322.25 263.11ZM325.227 266.27C325.34 266.61 325.49 266.863 325.677 267.03C325.87 267.197 326.153 267.28 326.527 267.28C326.713 267.28 326.887 267.25 327.047 267.19C327.213 267.123 327.36 267.037 327.487 266.93C327.613 266.817 327.713 266.683 327.787 266.53C327.86 266.37 327.897 266.193 327.897 266C327.897 265.707 327.833 265.473 327.707 265.3C327.587 265.12 327.43 264.987 327.237 264.9C327.043 264.807 326.83 264.747 326.597 264.72C326.363 264.693 326.133 264.68 325.907 264.68V263.84C326.273 263.84 326.573 263.817 326.807 263.77C327.04 263.717 327.223 263.643 327.357 263.55C327.49 263.457 327.583 263.34 327.637 263.2C327.69 263.06 327.717 262.903 327.717 262.73C327.717 262.35 327.603 262.063 327.377 261.87C327.15 261.677 326.867 261.58 326.527 261.58C326.267 261.58 326.03 261.657 325.817 261.81C325.61 261.957 325.453 262.153 325.347 262.4L324.367 262.07C324.553 261.617 324.837 261.283 325.217 261.07C325.603 260.85 326.033 260.74 326.507 260.74C326.793 260.74 327.067 260.78 327.327 260.86C327.593 260.933 327.827 261.05 328.027 261.21C328.227 261.37 328.383 261.573 328.497 261.82C328.617 262.06 328.677 262.343 328.677 262.67C328.677 263.043 328.563 263.377 328.337 263.67C328.117 263.963 327.827 264.163 327.467 264.27V264.29C327.687 264.33 327.883 264.403 328.057 264.51C328.23 264.617 328.377 264.75 328.497 264.91C328.617 265.07 328.707 265.25 328.767 265.45C328.827 265.643 328.857 265.85 328.857 266.07C328.857 266.41 328.79 266.71 328.657 266.97C328.53 267.223 328.357 267.437 328.137 267.61C327.923 267.777 327.673 267.903 327.387 267.99C327.107 268.077 326.81 268.12 326.497 268.12C325.957 268.12 325.48 267.997 325.067 267.75C324.66 267.503 324.377 267.113 324.217 266.58L325.227 266.27Z" fill="#C4C4C4"/>
<path d="M321.36 293.26H321.32C321.1 293.367 320.84 293.42 320.54 293.42C320.287 293.42 320.03 293.377 319.77 293.29C319.51 293.203 319.273 293.07 319.06 292.89C318.853 292.703 318.683 292.47 318.55 292.19C318.417 291.903 318.35 291.567 318.35 291.18C318.35 290.793 318.413 290.453 318.54 290.16C318.673 289.86 318.85 289.61 319.07 289.41C319.29 289.21 319.547 289.06 319.84 288.96C320.133 288.853 320.447 288.8 320.78 288.8C321.113 288.8 321.427 288.853 321.72 288.96C322.013 289.067 322.27 289.22 322.49 289.42C322.71 289.62 322.883 289.86 323.01 290.14C323.143 290.42 323.21 290.733 323.21 291.08C323.21 291.3 323.193 291.5 323.16 291.68C323.127 291.86 323.077 292.033 323.01 292.2C322.95 292.36 322.877 292.52 322.79 292.68C322.703 292.84 322.607 293.003 322.5 293.17L320.71 296H319.58L321.36 293.26ZM322.25 291.11C322.25 290.897 322.213 290.7 322.14 290.52C322.073 290.34 321.973 290.187 321.84 290.06C321.713 289.927 321.56 289.823 321.38 289.75C321.2 289.677 321 289.64 320.78 289.64C320.56 289.64 320.36 289.677 320.18 289.75C320 289.823 319.843 289.927 319.71 290.06C319.583 290.187 319.483 290.34 319.41 290.52C319.343 290.7 319.31 290.897 319.31 291.11C319.31 291.323 319.343 291.52 319.41 291.7C319.483 291.88 319.583 292.037 319.71 292.17C319.843 292.297 320 292.397 320.18 292.47C320.36 292.543 320.56 292.58 320.78 292.58C321 292.58 321.2 292.543 321.38 292.47C321.56 292.397 321.713 292.297 321.84 292.17C321.973 292.037 322.073 291.88 322.14 291.7C322.213 291.52 322.25 291.323 322.25 291.11ZM324.217 294.98L327.057 292.16C327.157 292.067 327.253 291.967 327.347 291.86C327.44 291.747 327.523 291.63 327.597 291.51C327.67 291.39 327.727 291.263 327.767 291.13C327.813 290.997 327.837 290.857 327.837 290.71C327.837 290.537 327.803 290.38 327.737 290.24C327.677 290.1 327.59 289.983 327.477 289.89C327.37 289.79 327.24 289.713 327.087 289.66C326.94 289.607 326.783 289.58 326.617 289.58C326.27 289.58 325.983 289.677 325.757 289.87C325.53 290.063 325.387 290.33 325.327 290.67L324.287 290.58C324.333 290.267 324.423 289.997 324.557 289.77C324.697 289.537 324.867 289.343 325.067 289.19C325.273 289.037 325.507 288.923 325.767 288.85C326.033 288.777 326.32 288.74 326.627 288.74C326.933 288.74 327.22 288.783 327.487 288.87C327.76 288.95 327.997 289.073 328.197 289.24C328.403 289.4 328.563 289.603 328.677 289.85C328.797 290.09 328.857 290.373 328.857 290.7C328.857 290.933 328.82 291.153 328.747 291.36C328.68 291.56 328.59 291.75 328.477 291.93C328.363 292.11 328.233 292.28 328.087 292.44C327.94 292.6 327.787 292.757 327.627 292.91L325.297 295.16H328.857V296H324.217V294.98Z" fill="#C4C4C4"/>
<path d="M321.36 321.26H321.32C321.1 321.367 320.84 321.42 320.54 321.42C320.287 321.42 320.03 321.377 319.77 321.29C319.51 321.203 319.273 321.07 319.06 320.89C318.853 320.703 318.683 320.47 318.55 320.19C318.417 319.903 318.35 319.567 318.35 319.18C318.35 318.793 318.413 318.453 318.54 318.16C318.673 317.86 318.85 317.61 319.07 317.41C319.29 317.21 319.547 317.06 319.84 316.96C320.133 316.853 320.447 316.8 320.78 316.8C321.113 316.8 321.427 316.853 321.72 316.96C322.013 317.067 322.27 317.22 322.49 317.42C322.71 317.62 322.883 317.86 323.01 318.14C323.143 318.42 323.21 318.733 323.21 319.08C323.21 319.3 323.193 319.5 323.16 319.68C323.127 319.86 323.077 320.033 323.01 320.2C322.95 320.36 322.877 320.52 322.79 320.68C322.703 320.84 322.607 321.003 322.5 321.17L320.71 324H319.58L321.36 321.26ZM322.25 319.11C322.25 318.897 322.213 318.7 322.14 318.52C322.073 318.34 321.973 318.187 321.84 318.06C321.713 317.927 321.56 317.823 321.38 317.75C321.2 317.677 321 317.64 320.78 317.64C320.56 317.64 320.36 317.677 320.18 317.75C320 317.823 319.843 317.927 319.71 318.06C319.583 318.187 319.483 318.34 319.41 318.52C319.343 318.7 319.31 318.897 319.31 319.11C319.31 319.323 319.343 319.52 319.41 319.7C319.483 319.88 319.583 320.037 319.71 320.17C319.843 320.297 320 320.397 320.18 320.47C320.36 320.543 320.56 320.58 320.78 320.58C321 320.58 321.2 320.543 321.38 320.47C321.56 320.397 321.713 320.297 321.84 320.17C321.973 320.037 322.073 319.88 322.14 319.7C322.213 319.52 322.25 319.323 322.25 319.11ZM326.457 318.02L325.157 319.22L324.597 318.55L326.567 316.92H327.417V324H326.457V318.02Z" fill="#C4C4C4"/>
<path d="M42.408 357.752C42.408 357.44 42.424 357.116 42.456 356.78C42.488 356.444 42.544 356.116 42.624 355.796C42.712 355.468 42.824 355.156 42.96 354.86C43.104 354.564 43.284 354.308 43.5 354.092C43.724 353.868 43.984 353.692 44.28 353.564C44.584 353.428 44.936 353.36 45.336 353.36C45.736 353.36 46.084 353.428 46.38 353.564C46.684 353.692 46.944 353.868 47.16 354.092C47.384 354.308 47.564 354.564 47.7 354.86C47.844 355.156 47.956 355.468 48.036 355.796C48.124 356.116 48.184 356.444 48.216 356.78C48.248 357.116 48.264 357.44 48.264 357.752C48.264 358.2 48.224 358.68 48.144 359.192C48.064 359.704 47.916 360.18 47.7 360.62C47.484 361.06 47.184 361.424 46.8 361.712C46.424 362 45.936 362.144 45.336 362.144C44.736 362.144 44.244 362 43.86 361.712C43.484 361.424 43.188 361.06 42.972 360.62C42.756 360.18 42.608 359.704 42.528 359.192C42.448 358.68 42.408 358.2 42.408 357.752ZM43.56 357.752C43.56 358.032 43.576 358.364 43.608 358.748C43.648 359.132 43.728 359.504 43.848 359.864C43.968 360.216 44.144 360.516 44.376 360.764C44.616 361.012 44.936 361.136 45.336 361.136C45.736 361.136 46.052 361.012 46.284 360.764C46.524 360.516 46.704 360.216 46.824 359.864C46.944 359.504 47.02 359.132 47.052 358.748C47.092 358.364 47.112 358.032 47.112 357.752C47.112 357.56 47.104 357.344 47.088 357.104C47.08 356.856 47.052 356.608 47.004 356.36C46.964 356.104 46.904 355.86 46.824 355.628C46.744 355.388 46.636 355.176 46.5 354.992C46.372 354.8 46.212 354.648 46.02 354.536C45.828 354.424 45.6 354.368 45.336 354.368C45.072 354.368 44.844 354.424 44.652 354.536C44.46 354.648 44.296 354.8 44.16 354.992C44.032 355.176 43.928 355.388 43.848 355.628C43.768 355.86 43.704 356.104 43.656 356.36C43.616 356.608 43.588 356.856 43.572 357.104C43.564 357.344 43.56 357.56 43.56 357.752ZM52.148 354.824L50.588 356.264L49.916 355.46L52.28 353.504H53.3V362H52.148V354.824ZM56.6559 362.528L55.8159 362.216L59.6559 352.976L60.4839 353.288L56.6559 362.528ZM61.128 357.752C61.128 357.44 61.144 357.116 61.176 356.78C61.208 356.444 61.264 356.116 61.344 355.796C61.432 355.468 61.544 355.156 61.68 354.86C61.824 354.564 62.004 354.308 62.22 354.092C62.444 353.868 62.704 353.692 63 353.564C63.304 353.428 63.656 353.36 64.056 353.36C64.456 353.36 64.804 353.428 65.1 353.564C65.404 353.692 65.664 353.868 65.88 354.092C66.104 354.308 66.284 354.564 66.42 354.86C66.564 355.156 66.676 355.468 66.756 355.796C66.844 356.116 66.904 356.444 66.936 356.78C66.968 357.116 66.984 357.44 66.984 357.752C66.984 358.2 66.944 358.68 66.864 359.192C66.784 359.704 66.636 360.18 66.42 360.62C66.204 361.06 65.904 361.424 65.52 361.712C65.144 362 64.656 362.144 64.056 362.144C63.456 362.144 62.964 362 62.58 361.712C62.204 361.424 61.908 361.06 61.692 360.62C61.476 360.18 61.328 359.704 61.248 359.192C61.168 358.68 61.128 358.2 61.128 357.752ZM62.28 357.752C62.28 358.032 62.296 358.364 62.328 358.748C62.368 359.132 62.448 359.504 62.568 359.864C62.688 360.216 62.864 360.516 63.096 360.764C63.336 361.012 63.656 361.136 64.056 361.136C64.456 361.136 64.772 361.012 65.004 360.764C65.244 360.516 65.424 360.216 65.544 359.864C65.664 359.504 65.74 359.132 65.772 358.748C65.812 358.364 65.832 358.032 65.832 357.752C65.832 357.56 65.824 357.344 65.808 357.104C65.8 356.856 65.772 356.608 65.724 356.36C65.684 356.104 65.624 355.86 65.544 355.628C65.464 355.388 65.356 355.176 65.22 354.992C65.092 354.8 64.932 354.648 64.74 354.536C64.548 354.424 64.32 354.368 64.056 354.368C63.792 354.368 63.564 354.424 63.372 354.536C63.18 354.648 63.016 354.8 62.88 354.992C62.752 355.176 62.648 355.388 62.568 355.628C62.488 355.86 62.424 356.104 62.376 356.36C62.336 356.608 62.308 356.856 62.292 357.104C62.284 357.344 62.28 357.56 62.28 357.752ZM73.28 354.584H69.836L69.8 356.708C69.856 356.684 69.936 356.66 70.04 356.636C70.144 356.612 70.248 356.592 70.352 356.576C70.464 356.56 70.572 356.548 70.676 356.54C70.78 356.532 70.868 356.528 70.94 356.528C71.34 356.528 71.7 356.596 72.02 356.732C72.348 356.868 72.628 357.06 72.86 357.308C73.092 357.556 73.268 357.852 73.388 358.196C73.516 358.54 73.58 358.92 73.58 359.336C73.58 359.76 73.5 360.144 73.34 360.488C73.188 360.832 72.976 361.128 72.704 361.376C72.432 361.624 72.116 361.816 71.756 361.952C71.396 362.08 71.008 362.144 70.592 362.144C70.016 362.144 69.496 361.996 69.032 361.7C68.568 361.404 68.236 360.98 68.036 360.428L69.2 360.032C69.352 360.424 69.556 360.708 69.812 360.884C70.068 361.052 70.388 361.136 70.772 361.136C70.996 361.136 71.208 361.096 71.408 361.016C71.616 360.936 71.792 360.824 71.936 360.68C72.088 360.528 72.208 360.344 72.296 360.128C72.384 359.912 72.428 359.668 72.428 359.396C72.428 358.772 72.236 358.308 71.852 358.004C71.476 357.692 70.984 357.536 70.376 357.536C70.16 357.536 69.884 357.576 69.548 357.656C69.22 357.728 68.912 357.836 68.624 357.98L68.72 353.504H73.28V354.584Z" fill="#C4C4C4"/>
<path d="M13.46 181.98L16.3 179.16C16.4 179.067 16.4967 178.967 16.59 178.86C16.6833 178.747 16.7667 178.63 16.84 178.51C16.9133 178.39 16.97 178.263 17.01 178.13C17.0567 177.997 17.08 177.857 17.08 177.71C17.08 177.537 17.0467 177.38 16.98 177.24C16.92 177.1 16.8333 176.983 16.72 176.89C16.6133 176.79 16.4833 176.713 16.33 176.66C16.1833 176.607 16.0267 176.58 15.86 176.58C15.5133 176.58 15.2267 176.677 15 176.87C14.7733 177.063 14.63 177.33 14.57 177.67L13.53 177.58C13.5767 177.267 13.6667 176.997 13.8 176.77C13.94 176.537 14.11 176.343 14.31 176.19C14.5167 176.037 14.75 175.923 15.01 175.85C15.2767 175.777 15.5633 175.74 15.87 175.74C16.1767 175.74 16.4633 175.783 16.73 175.87C17.0033 175.95 17.24 176.073 17.44 176.24C17.6467 176.4 17.8067 176.603 17.92 176.85C18.04 177.09 18.1 177.373 18.1 177.7C18.1 177.933 18.0633 178.153 17.99 178.36C17.9233 178.56 17.8333 178.75 17.72 178.93C17.6067 179.11 17.4767 179.28 17.33 179.44C17.1833 179.6 17.03 179.757 16.87 179.91L14.54 182.16H18.1V183H13.46V181.98ZM23.4666 176.82H20.5966L20.5666 178.59C20.6133 178.57 20.68 178.55 20.7666 178.53C20.8533 178.51 20.94 178.493 21.0266 178.48C21.12 178.467 21.21 178.457 21.2966 178.45C21.3833 178.443 21.4566 178.44 21.5166 178.44C21.85 178.44 22.15 178.497 22.4166 178.61C22.69 178.723 22.9233 178.883 23.1166 179.09C23.31 179.297 23.4566 179.543 23.5566 179.83C23.6633 180.117 23.7166 180.433 23.7166 180.78C23.7166 181.133 23.65 181.453 23.5166 181.74C23.39 182.027 23.2133 182.273 22.9866 182.48C22.76 182.687 22.4966 182.847 22.1966 182.96C21.8966 183.067 21.5733 183.12 21.2266 183.12C20.7466 183.12 20.3133 182.997 19.9266 182.75C19.54 182.503 19.2633 182.15 19.0966 181.69L20.0666 181.36C20.1933 181.687 20.3633 181.923 20.5766 182.07C20.79 182.21 21.0566 182.28 21.3766 182.28C21.5633 182.28 21.74 182.247 21.9066 182.18C22.08 182.113 22.2266 182.02 22.3466 181.9C22.4733 181.773 22.5733 181.62 22.6466 181.44C22.72 181.26 22.7566 181.057 22.7566 180.83C22.7566 180.31 22.5966 179.923 22.2766 179.67C21.9633 179.41 21.5533 179.28 21.0466 179.28C20.8666 179.28 20.6366 179.313 20.3566 179.38C20.0833 179.44 19.8266 179.53 19.5866 179.65L19.6666 175.92H23.4666V176.82Z" fill="#C4C4C4"/>
<path d="M13.46 218.98L16.3 216.16C16.4 216.067 16.4967 215.967 16.59 215.86C16.6833 215.747 16.7667 215.63 16.84 215.51C16.9133 215.39 16.97 215.263 17.01 215.13C17.0567 214.997 17.08 214.857 17.08 214.71C17.08 214.537 17.0467 214.38 16.98 214.24C16.92 214.1 16.8333 213.983 16.72 213.89C16.6133 213.79 16.4833 213.713 16.33 213.66C16.1833 213.607 16.0267 213.58 15.86 213.58C15.5133 213.58 15.2267 213.677 15 213.87C14.7733 214.063 14.63 214.33 14.57 214.67L13.53 214.58C13.5767 214.267 13.6667 213.997 13.8 213.77C13.94 213.537 14.11 213.343 14.31 213.19C14.5167 213.037 14.75 212.923 15.01 212.85C15.2767 212.777 15.5633 212.74 15.87 212.74C16.1767 212.74 16.4633 212.783 16.73 212.87C17.0033 212.95 17.24 213.073 17.44 213.24C17.6467 213.4 17.8067 213.603 17.92 213.85C18.04 214.09 18.1 214.373 18.1 214.7C18.1 214.933 18.0633 215.153 17.99 215.36C17.9233 215.56 17.8333 215.75 17.72 215.93C17.6067 216.11 17.4767 216.28 17.33 216.44C17.1833 216.6 17.03 216.757 16.87 216.91L14.54 219.16H18.1V220H13.46V218.98ZM19.0966 216.46C19.0966 216.2 19.11 215.93 19.1366 215.65C19.1633 215.37 19.21 215.097 19.2766 214.83C19.35 214.557 19.4433 214.297 19.5566 214.05C19.6766 213.803 19.8266 213.59 20.0066 213.41C20.1933 213.223 20.41 213.077 20.6566 212.97C20.91 212.857 21.2033 212.8 21.5366 212.8C21.87 212.8 22.16 212.857 22.4066 212.97C22.66 213.077 22.8766 213.223 23.0566 213.41C23.2433 213.59 23.3933 213.803 23.5066 214.05C23.6266 214.297 23.72 214.557 23.7866 214.83C23.86 215.097 23.91 215.37 23.9366 215.65C23.9633 215.93 23.9766 216.2 23.9766 216.46C23.9766 216.833 23.9433 217.233 23.8766 217.66C23.81 218.087 23.6866 218.483 23.5066 218.85C23.3266 219.217 23.0766 219.52 22.7566 219.76C22.4433 220 22.0366 220.12 21.5366 220.12C21.0366 220.12 20.6266 220 20.3066 219.76C19.9933 219.52 19.7466 219.217 19.5666 218.85C19.3866 218.483 19.2633 218.087 19.1966 217.66C19.13 217.233 19.0966 216.833 19.0966 216.46ZM20.0566 216.46C20.0566 216.693 20.07 216.97 20.0966 217.29C20.13 217.61 20.1966 217.92 20.2966 218.22C20.3966 218.513 20.5433 218.763 20.7366 218.97C20.9366 219.177 21.2033 219.28 21.5366 219.28C21.87 219.28 22.1333 219.177 22.3266 218.97C22.5266 218.763 22.6766 218.513 22.7766 218.22C22.8766 217.92 22.94 217.61 22.9666 217.29C23 216.97 23.0166 216.693 23.0166 216.46C23.0166 216.3 23.01 216.12 22.9966 215.92C22.99 215.713 22.9666 215.507 22.9266 215.3C22.8933 215.087 22.8433 214.883 22.7766 214.69C22.71 214.49 22.62 214.313 22.5066 214.16C22.4 214 22.2666 213.873 22.1066 213.78C21.9466 213.687 21.7566 213.64 21.5366 213.64C21.3166 213.64 21.1266 213.687 20.9666 213.78C20.8066 213.873 20.67 214 20.5566 214.16C20.45 214.313 20.3633 214.49 20.2966 214.69C20.23 214.883 20.1766 215.087 20.1366 215.3C20.1033 215.507 20.08 215.713 20.0666 215.92C20.06 216.12 20.0566 216.3 20.0566 216.46Z" fill="#C4C4C4"/>
<path d="M14.47 107.27C14.5833 107.61 14.7333 107.863 14.92 108.03C15.1133 108.197 15.3967 108.28 15.77 108.28C15.9567 108.28 16.13 108.25 16.29 108.19C16.4567 108.123 16.6033 108.037 16.73 107.93C16.8567 107.817 16.9567 107.683 17.03 107.53C17.1033 107.37 17.14 107.193 17.14 107C17.14 106.707 17.0767 106.473 16.95 106.3C16.83 106.12 16.6733 105.987 16.48 105.9C16.2867 105.807 16.0733 105.747 15.84 105.72C15.6067 105.693 15.3767 105.68 15.15 105.68V104.84C15.5167 104.84 15.8167 104.817 16.05 104.77C16.2833 104.717 16.4667 104.643 16.6 104.55C16.7333 104.457 16.8267 104.34 16.88 104.2C16.9333 104.06 16.96 103.903 16.96 103.73C16.96 103.35 16.8467 103.063 16.62 102.87C16.3933 102.677 16.11 102.58 15.77 102.58C15.51 102.58 15.2733 102.657 15.06 102.81C14.8533 102.957 14.6967 103.153 14.59 103.4L13.61 103.07C13.7967 102.617 14.08 102.283 14.46 102.07C14.8467 101.85 15.2767 101.74 15.75 101.74C16.0367 101.74 16.31 101.78 16.57 101.86C16.8367 101.933 17.07 102.05 17.27 102.21C17.47 102.37 17.6267 102.573 17.74 102.82C17.86 103.06 17.92 103.343 17.92 103.67C17.92 104.043 17.8067 104.377 17.58 104.67C17.36 104.963 17.07 105.163 16.71 105.27V105.29C16.93 105.33 17.1267 105.403 17.3 105.51C17.4733 105.617 17.62 105.75 17.74 105.91C17.86 106.07 17.95 106.25 18.01 106.45C18.07 106.643 18.1 106.85 18.1 107.07C18.1 107.41 18.0333 107.71 17.9 107.97C17.7733 108.223 17.6 108.437 17.38 108.61C17.1667 108.777 16.9167 108.903 16.63 108.99C16.35 109.077 16.0533 109.12 15.74 109.12C15.2 109.12 14.7233 108.997 14.31 108.75C13.9033 108.503 13.62 108.113 13.46 107.58L14.47 107.27ZM23.4666 102.82H20.5966L20.5666 104.59C20.6133 104.57 20.68 104.55 20.7666 104.53C20.8533 104.51 20.94 104.493 21.0266 104.48C21.12 104.467 21.21 104.457 21.2966 104.45C21.3833 104.443 21.4566 104.44 21.5166 104.44C21.85 104.44 22.15 104.497 22.4166 104.61C22.69 104.723 22.9233 104.883 23.1166 105.09C23.31 105.297 23.4566 105.543 23.5566 105.83C23.6633 106.117 23.7166 106.433 23.7166 106.78C23.7166 107.133 23.65 107.453 23.5166 107.74C23.39 108.027 23.2133 108.273 22.9866 108.48C22.76 108.687 22.4966 108.847 22.1966 108.96C21.8966 109.067 21.5733 109.12 21.2266 109.12C20.7466 109.12 20.3133 108.997 19.9266 108.75C19.54 108.503 19.2633 108.15 19.0966 107.69L20.0666 107.36C20.1933 107.687 20.3633 107.923 20.5766 108.07C20.79 108.21 21.0566 108.28 21.3766 108.28C21.5633 108.28 21.74 108.247 21.9066 108.18C22.08 108.113 22.2266 108.02 22.3466 107.9C22.4733 107.773 22.5733 107.62 22.6466 107.44C22.72 107.26 22.7566 107.057 22.7566 106.83C22.7566 106.31 22.5966 105.923 22.2766 105.67C21.9633 105.41 21.5533 105.28 21.0466 105.28C20.8666 105.28 20.6366 105.313 20.3566 105.38C20.0833 105.44 19.8266 105.53 19.5866 105.65L19.6666 101.92H23.4666V102.82Z" fill="#C4C4C4"/>
<path d="M14.47 144.27C14.5833 144.61 14.7333 144.863 14.92 145.03C15.1133 145.197 15.3967 145.28 15.77 145.28C15.9567 145.28 16.13 145.25 16.29 145.19C16.4567 145.123 16.6033 145.037 16.73 144.93C16.8567 144.817 16.9567 144.683 17.03 144.53C17.1033 144.37 17.14 144.193 17.14 144C17.14 143.707 17.0767 143.473 16.95 143.3C16.83 143.12 16.6733 142.987 16.48 142.9C16.2867 142.807 16.0733 142.747 15.84 142.72C15.6067 142.693 15.3767 142.68 15.15 142.68V141.84C15.5167 141.84 15.8167 141.817 16.05 141.77C16.2833 141.717 16.4667 141.643 16.6 141.55C16.7333 141.457 16.8267 141.34 16.88 141.2C16.9333 141.06 16.96 140.903 16.96 140.73C16.96 140.35 16.8467 140.063 16.62 139.87C16.3933 139.677 16.11 139.58 15.77 139.58C15.51 139.58 15.2733 139.657 15.06 139.81C14.8533 139.957 14.6967 140.153 14.59 140.4L13.61 140.07C13.7967 139.617 14.08 139.283 14.46 139.07C14.8467 138.85 15.2767 138.74 15.75 138.74C16.0367 138.74 16.31 138.78 16.57 138.86C16.8367 138.933 17.07 139.05 17.27 139.21C17.47 139.37 17.6267 139.573 17.74 139.82C17.86 140.06 17.92 140.343 17.92 140.67C17.92 141.043 17.8067 141.377 17.58 141.67C17.36 141.963 17.07 142.163 16.71 142.27V142.29C16.93 142.33 17.1267 142.403 17.3 142.51C17.4733 142.617 17.62 142.75 17.74 142.91C17.86 143.07 17.95 143.25 18.01 143.45C18.07 143.643 18.1 143.85 18.1 144.07C18.1 144.41 18.0333 144.71 17.9 144.97C17.7733 145.223 17.6 145.437 17.38 145.61C17.1667 145.777 16.9167 145.903 16.63 145.99C16.35 146.077 16.0533 146.12 15.74 146.12C15.2 146.12 14.7233 145.997 14.31 145.75C13.9033 145.503 13.62 145.113 13.46 144.58L14.47 144.27ZM19.0966 142.46C19.0966 142.2 19.11 141.93 19.1366 141.65C19.1633 141.37 19.21 141.097 19.2766 140.83C19.35 140.557 19.4433 140.297 19.5566 140.05C19.6766 139.803 19.8266 139.59 20.0066 139.41C20.1933 139.223 20.41 139.077 20.6566 138.97C20.91 138.857 21.2033 138.8 21.5366 138.8C21.87 138.8 22.16 138.857 22.4066 138.97C22.66 139.077 22.8766 139.223 23.0566 139.41C23.2433 139.59 23.3933 139.803 23.5066 140.05C23.6266 140.297 23.72 140.557 23.7866 140.83C23.86 141.097 23.91 141.37 23.9366 141.65C23.9633 141.93 23.9766 142.2 23.9766 142.46C23.9766 142.833 23.9433 143.233 23.8766 143.66C23.81 144.087 23.6866 144.483 23.5066 144.85C23.3266 145.217 23.0766 145.52 22.7566 145.76C22.4433 146 22.0366 146.12 21.5366 146.12C21.0366 146.12 20.6266 146 20.3066 145.76C19.9933 145.52 19.7466 145.217 19.5666 144.85C19.3866 144.483 19.2633 144.087 19.1966 143.66C19.13 143.233 19.0966 142.833 19.0966 142.46ZM20.0566 142.46C20.0566 142.693 20.07 142.97 20.0966 143.29C20.13 143.61 20.1966 143.92 20.2966 144.22C20.3966 144.513 20.5433 144.763 20.7366 144.97C20.9366 145.177 21.2033 145.28 21.5366 145.28C21.87 145.28 22.1333 145.177 22.3266 144.97C22.5266 144.763 22.6766 144.513 22.7766 144.22C22.8766 143.92 22.94 143.61 22.9666 143.29C23 142.97 23.0166 142.693 23.0166 142.46C23.0166 142.3 23.01 142.12 22.9966 141.92C22.99 141.713 22.9666 141.507 22.9266 141.3C22.8933 141.087 22.8433 140.883 22.7766 140.69C22.71 140.49 22.62 140.313 22.5066 140.16C22.4 140 22.2666 139.873 22.1066 139.78C21.9466 139.687 21.7566 139.64 21.5366 139.64C21.3166 139.64 21.1266 139.687 20.9666 139.78C20.8066 139.873 20.67 140 20.5566 140.16C20.45 140.313 20.3633 140.49 20.2966 140.69C20.23 140.883 20.1766 141.087 20.1366 141.3C20.1033 141.507 20.08 141.713 20.0666 141.92C20.06 142.12 20.0566 142.3 20.0566 142.46Z" fill="#C4C4C4"/>
<path d="M16.36 70.44H13.34V69.46L16.16 64.92H17.32V69.6H18.32V70.44H17.32V72H16.36V70.44ZM16.36 66.06H16.34L14.18 69.6H16.36V66.06ZM19.0966 68.46C19.0966 68.2 19.11 67.93 19.1366 67.65C19.1633 67.37 19.21 67.0967 19.2766 66.83C19.35 66.5567 19.4433 66.2967 19.5566 66.05C19.6766 65.8033 19.8266 65.59 20.0066 65.41C20.1933 65.2233 20.41 65.0767 20.6566 64.97C20.91 64.8567 21.2033 64.8 21.5366 64.8C21.87 64.8 22.16 64.8567 22.4066 64.97C22.66 65.0767 22.8766 65.2233 23.0566 65.41C23.2433 65.59 23.3933 65.8033 23.5066 66.05C23.6266 66.2967 23.72 66.5567 23.7866 66.83C23.86 67.0967 23.91 67.37 23.9366 67.65C23.9633 67.93 23.9766 68.2 23.9766 68.46C23.9766 68.8333 23.9433 69.2333 23.8766 69.66C23.81 70.0867 23.6866 70.4833 23.5066 70.85C23.3266 71.2167 23.0766 71.52 22.7566 71.76C22.4433 72 22.0366 72.12 21.5366 72.12C21.0366 72.12 20.6266 72 20.3066 71.76C19.9933 71.52 19.7466 71.2167 19.5666 70.85C19.3866 70.4833 19.2633 70.0867 19.1966 69.66C19.13 69.2333 19.0966 68.8333 19.0966 68.46ZM20.0566 68.46C20.0566 68.6933 20.07 68.97 20.0966 69.29C20.13 69.61 20.1966 69.92 20.2966 70.22C20.3966 70.5133 20.5433 70.7633 20.7366 70.97C20.9366 71.1767 21.2033 71.28 21.5366 71.28C21.87 71.28 22.1333 71.1767 22.3266 70.97C22.5266 70.7633 22.6766 70.5133 22.7766 70.22C22.8766 69.92 22.94 69.61 22.9666 69.29C23 68.97 23.0166 68.6933 23.0166 68.46C23.0166 68.3 23.01 68.12 22.9966 67.92C22.99 67.7133 22.9666 67.5067 22.9266 67.3C22.8933 67.0867 22.8433 66.8833 22.7766 66.69C22.71 66.49 22.62 66.3133 22.5066 66.16C22.4 66 22.2666 65.8733 22.1066 65.78C21.9466 65.6867 21.7566 65.64 21.5366 65.64C21.3166 65.64 21.1266 65.6867 20.9666 65.78C20.8066 65.8733 20.67 66 20.5566 66.16C20.45 66.3133 20.3633 66.49 20.2966 66.69C20.23 66.8833 20.1766 67.0867 20.1366 67.3C20.1033 67.5067 20.08 67.7133 20.0666 67.92C20.06 68.12 20.0566 68.3 20.0566 68.46Z" fill="#C4C4C4"/>
<path d="M117.408 357.752C117.408 357.44 117.424 357.116 117.456 356.78C117.488 356.444 117.544 356.116 117.624 355.796C117.712 355.468 117.824 355.156 117.96 354.86C118.104 354.564 118.284 354.308 118.5 354.092C118.724 353.868 118.984 353.692 119.28 353.564C119.584 353.428 119.936 353.36 120.336 353.36C120.736 353.36 121.084 353.428 121.38 353.564C121.684 353.692 121.944 353.868 122.16 354.092C122.384 354.308 122.564 354.564 122.7 354.86C122.844 355.156 122.956 355.468 123.036 355.796C123.124 356.116 123.184 356.444 123.216 356.78C123.248 357.116 123.264 357.44 123.264 357.752C123.264 358.2 123.224 358.68 123.144 359.192C123.064 359.704 122.916 360.18 122.7 360.62C122.484 361.06 122.184 361.424 121.8 361.712C121.424 362 120.936 362.144 120.336 362.144C119.736 362.144 119.244 362 118.86 361.712C118.484 361.424 118.188 361.06 117.972 360.62C117.756 360.18 117.608 359.704 117.528 359.192C117.448 358.68 117.408 358.2 117.408 357.752ZM118.56 357.752C118.56 358.032 118.576 358.364 118.608 358.748C118.648 359.132 118.728 359.504 118.848 359.864C118.968 360.216 119.144 360.516 119.376 360.764C119.616 361.012 119.936 361.136 120.336 361.136C120.736 361.136 121.052 361.012 121.284 360.764C121.524 360.516 121.704 360.216 121.824 359.864C121.944 359.504 122.02 359.132 122.052 358.748C122.092 358.364 122.112 358.032 122.112 357.752C122.112 357.56 122.104 357.344 122.088 357.104C122.08 356.856 122.052 356.608 122.004 356.36C121.964 356.104 121.904 355.86 121.824 355.628C121.744 355.388 121.636 355.176 121.5 354.992C121.372 354.8 121.212 354.648 121.02 354.536C120.828 354.424 120.6 354.368 120.336 354.368C120.072 354.368 119.844 354.424 119.652 354.536C119.46 354.648 119.296 354.8 119.16 354.992C119.032 355.176 118.928 355.388 118.848 355.628C118.768 355.86 118.704 356.104 118.656 356.36C118.616 356.608 118.588 356.856 118.572 357.104C118.564 357.344 118.56 357.56 118.56 357.752ZM127.148 354.824L125.588 356.264L124.916 355.46L127.28 353.504H128.3V362H127.148V354.824ZM131.656 362.528L130.816 362.216L134.656 352.976L135.484 353.288L131.656 362.528ZM136.128 357.752C136.128 357.44 136.144 357.116 136.176 356.78C136.208 356.444 136.264 356.116 136.344 355.796C136.432 355.468 136.544 355.156 136.68 354.86C136.824 354.564 137.004 354.308 137.22 354.092C137.444 353.868 137.704 353.692 138 353.564C138.304 353.428 138.656 353.36 139.056 353.36C139.456 353.36 139.804 353.428 140.1 353.564C140.404 353.692 140.664 353.868 140.88 354.092C141.104 354.308 141.284 354.564 141.42 354.86C141.564 355.156 141.676 355.468 141.756 355.796C141.844 356.116 141.904 356.444 141.936 356.78C141.968 357.116 141.984 357.44 141.984 357.752C141.984 358.2 141.944 358.68 141.864 359.192C141.784 359.704 141.636 360.18 141.42 360.62C141.204 361.06 140.904 361.424 140.52 361.712C140.144 362 139.656 362.144 139.056 362.144C138.456 362.144 137.964 362 137.58 361.712C137.204 361.424 136.908 361.06 136.692 360.62C136.476 360.18 136.328 359.704 136.248 359.192C136.168 358.68 136.128 358.2 136.128 357.752ZM137.28 357.752C137.28 358.032 137.296 358.364 137.328 358.748C137.368 359.132 137.448 359.504 137.568 359.864C137.688 360.216 137.864 360.516 138.096 360.764C138.336 361.012 138.656 361.136 139.056 361.136C139.456 361.136 139.772 361.012 140.004 360.764C140.244 360.516 140.424 360.216 140.544 359.864C140.664 359.504 140.74 359.132 140.772 358.748C140.812 358.364 140.832 358.032 140.832 357.752C140.832 357.56 140.824 357.344 140.808 357.104C140.8 356.856 140.772 356.608 140.724 356.36C140.684 356.104 140.624 355.86 140.544 355.628C140.464 355.388 140.356 355.176 140.22 354.992C140.092 354.8 139.932 354.648 139.74 354.536C139.548 354.424 139.32 354.368 139.056 354.368C138.792 354.368 138.564 354.424 138.372 354.536C138.18 354.648 138.016 354.8 137.88 354.992C137.752 355.176 137.648 355.388 137.568 355.628C137.488 355.86 137.424 356.104 137.376 356.36C137.336 356.608 137.308 356.856 137.292 357.104C137.284 357.344 137.28 357.56 137.28 357.752ZM145.268 356.792H145.316C145.58 356.664 145.892 356.6 146.252 356.6C146.556 356.6 146.864 356.652 147.176 356.756C147.488 356.86 147.768 357.024 148.016 357.248C148.272 357.464 148.48 357.744 148.64 358.088C148.8 358.424 148.88 358.824 148.88 359.288C148.88 359.76 148.8 360.176 148.64 360.536C148.488 360.888 148.28 361.184 148.016 361.424C147.752 361.664 147.444 361.844 147.092 361.964C146.74 362.084 146.364 362.144 145.964 362.144C145.564 362.144 145.188 362.08 144.836 361.952C144.484 361.824 144.176 361.64 143.912 361.4C143.648 361.16 143.436 360.872 143.276 360.536C143.124 360.2 143.048 359.824 143.048 359.408C143.048 359.144 143.068 358.904 143.108 358.688C143.148 358.472 143.204 358.268 143.276 358.076C143.356 357.876 143.448 357.684 143.552 357.5C143.656 357.308 143.772 357.108 143.9 356.9L146.048 353.504H147.404L145.268 356.792ZM144.2 359.372C144.2 359.628 144.24 359.864 144.32 360.08C144.408 360.296 144.528 360.484 144.68 360.644C144.84 360.796 145.028 360.916 145.244 361.004C145.46 361.092 145.7 361.136 145.964 361.136C146.228 361.136 146.468 361.092 146.684 361.004C146.9 360.916 147.084 360.796 147.236 360.644C147.396 360.484 147.516 360.296 147.596 360.08C147.684 359.864 147.728 359.628 147.728 359.372C147.728 359.116 147.684 358.88 147.596 358.664C147.516 358.448 147.396 358.264 147.236 358.112C147.084 357.952 146.9 357.828 146.684 357.74C146.468 357.652 146.228 357.608 145.964 357.608C145.7 357.608 145.46 357.652 145.244 357.74C145.028 357.828 144.84 357.952 144.68 358.112C144.528 358.264 144.408 358.448 144.32 358.664C144.24 358.88 144.2 359.116 144.2 359.372Z" fill="#C4C4C4"/>
<path d="M192.408 357.752C192.408 357.44 192.424 357.116 192.456 356.78C192.488 356.444 192.544 356.116 192.624 355.796C192.712 355.468 192.824 355.156 192.96 354.86C193.104 354.564 193.284 354.308 193.5 354.092C193.724 353.868 193.984 353.692 194.28 353.564C194.584 353.428 194.936 353.36 195.336 353.36C195.736 353.36 196.084 353.428 196.38 353.564C196.684 353.692 196.944 353.868 197.16 354.092C197.384 354.308 197.564 354.564 197.7 354.86C197.844 355.156 197.956 355.468 198.036 355.796C198.124 356.116 198.184 356.444 198.216 356.78C198.248 357.116 198.264 357.44 198.264 357.752C198.264 358.2 198.224 358.68 198.144 359.192C198.064 359.704 197.916 360.18 197.7 360.62C197.484 361.06 197.184 361.424 196.8 361.712C196.424 362 195.936 362.144 195.336 362.144C194.736 362.144 194.244 362 193.86 361.712C193.484 361.424 193.188 361.06 192.972 360.62C192.756 360.18 192.608 359.704 192.528 359.192C192.448 358.68 192.408 358.2 192.408 357.752ZM193.56 357.752C193.56 358.032 193.576 358.364 193.608 358.748C193.648 359.132 193.728 359.504 193.848 359.864C193.968 360.216 194.144 360.516 194.376 360.764C194.616 361.012 194.936 361.136 195.336 361.136C195.736 361.136 196.052 361.012 196.284 360.764C196.524 360.516 196.704 360.216 196.824 359.864C196.944 359.504 197.02 359.132 197.052 358.748C197.092 358.364 197.112 358.032 197.112 357.752C197.112 357.56 197.104 357.344 197.088 357.104C197.08 356.856 197.052 356.608 197.004 356.36C196.964 356.104 196.904 355.86 196.824 355.628C196.744 355.388 196.636 355.176 196.5 354.992C196.372 354.8 196.212 354.648 196.02 354.536C195.828 354.424 195.6 354.368 195.336 354.368C195.072 354.368 194.844 354.424 194.652 354.536C194.46 354.648 194.296 354.8 194.16 354.992C194.032 355.176 193.928 355.388 193.848 355.628C193.768 355.86 193.704 356.104 193.656 356.36C193.616 356.608 193.588 356.856 193.572 357.104C193.564 357.344 193.56 357.56 193.56 357.752ZM202.148 354.824L200.588 356.264L199.916 355.46L202.28 353.504H203.3V362H202.148V354.824ZM206.656 362.528L205.816 362.216L209.656 352.976L210.484 353.288L206.656 362.528ZM211.128 357.752C211.128 357.44 211.144 357.116 211.176 356.78C211.208 356.444 211.264 356.116 211.344 355.796C211.432 355.468 211.544 355.156 211.68 354.86C211.824 354.564 212.004 354.308 212.22 354.092C212.444 353.868 212.704 353.692 213 353.564C213.304 353.428 213.656 353.36 214.056 353.36C214.456 353.36 214.804 353.428 215.1 353.564C215.404 353.692 215.664 353.868 215.88 354.092C216.104 354.308 216.284 354.564 216.42 354.86C216.564 355.156 216.676 355.468 216.756 355.796C216.844 356.116 216.904 356.444 216.936 356.78C216.968 357.116 216.984 357.44 216.984 357.752C216.984 358.2 216.944 358.68 216.864 359.192C216.784 359.704 216.636 360.18 216.42 360.62C216.204 361.06 215.904 361.424 215.52 361.712C215.144 362 214.656 362.144 214.056 362.144C213.456 362.144 212.964 362 212.58 361.712C212.204 361.424 211.908 361.06 211.692 360.62C211.476 360.18 211.328 359.704 211.248 359.192C211.168 358.68 211.128 358.2 211.128 357.752ZM212.28 357.752C212.28 358.032 212.296 358.364 212.328 358.748C212.368 359.132 212.448 359.504 212.568 359.864C212.688 360.216 212.864 360.516 213.096 360.764C213.336 361.012 213.656 361.136 214.056 361.136C214.456 361.136 214.772 361.012 215.004 360.764C215.244 360.516 215.424 360.216 215.544 359.864C215.664 359.504 215.74 359.132 215.772 358.748C215.812 358.364 215.832 358.032 215.832 357.752C215.832 357.56 215.824 357.344 215.808 357.104C215.8 356.856 215.772 356.608 215.724 356.36C215.684 356.104 215.624 355.86 215.544 355.628C215.464 355.388 215.356 355.176 215.22 354.992C215.092 354.8 214.932 354.648 214.74 354.536C214.548 354.424 214.32 354.368 214.056 354.368C213.792 354.368 213.564 354.424 213.372 354.536C213.18 354.648 213.016 354.8 212.88 354.992C212.752 355.176 212.648 355.388 212.568 355.628C212.488 355.86 212.424 356.104 212.376 356.36C212.336 356.608 212.308 356.856 212.292 357.104C212.284 357.344 212.28 357.56 212.28 357.752ZM222.236 354.512H218.132V353.504H223.472V354.488L220.088 362H218.792L222.236 354.512Z" fill="#C4C4C4"/>
<path d="M267.408 357.752C267.408 357.44 267.424 357.116 267.456 356.78C267.488 356.444 267.544 356.116 267.624 355.796C267.712 355.468 267.824 355.156 267.96 354.86C268.104 354.564 268.284 354.308 268.5 354.092C268.724 353.868 268.984 353.692 269.28 353.564C269.584 353.428 269.936 353.36 270.336 353.36C270.736 353.36 271.084 353.428 271.38 353.564C271.684 353.692 271.944 353.868 272.16 354.092C272.384 354.308 272.564 354.564 272.7 354.86C272.844 355.156 272.956 355.468 273.036 355.796C273.124 356.116 273.184 356.444 273.216 356.78C273.248 357.116 273.264 357.44 273.264 357.752C273.264 358.2 273.224 358.68 273.144 359.192C273.064 359.704 272.916 360.18 272.7 360.62C272.484 361.06 272.184 361.424 271.8 361.712C271.424 362 270.936 362.144 270.336 362.144C269.736 362.144 269.244 362 268.86 361.712C268.484 361.424 268.188 361.06 267.972 360.62C267.756 360.18 267.608 359.704 267.528 359.192C267.448 358.68 267.408 358.2 267.408 357.752ZM268.56 357.752C268.56 358.032 268.576 358.364 268.608 358.748C268.648 359.132 268.728 359.504 268.848 359.864C268.968 360.216 269.144 360.516 269.376 360.764C269.616 361.012 269.936 361.136 270.336 361.136C270.736 361.136 271.052 361.012 271.284 360.764C271.524 360.516 271.704 360.216 271.824 359.864C271.944 359.504 272.02 359.132 272.052 358.748C272.092 358.364 272.112 358.032 272.112 357.752C272.112 357.56 272.104 357.344 272.088 357.104C272.08 356.856 272.052 356.608 272.004 356.36C271.964 356.104 271.904 355.86 271.824 355.628C271.744 355.388 271.636 355.176 271.5 354.992C271.372 354.8 271.212 354.648 271.02 354.536C270.828 354.424 270.6 354.368 270.336 354.368C270.072 354.368 269.844 354.424 269.652 354.536C269.46 354.648 269.296 354.8 269.16 354.992C269.032 355.176 268.928 355.388 268.848 355.628C268.768 355.86 268.704 356.104 268.656 356.36C268.616 356.608 268.588 356.856 268.572 357.104C268.564 357.344 268.56 357.56 268.56 357.752ZM277.148 354.824L275.588 356.264L274.916 355.46L277.28 353.504H278.3V362H277.148V354.824ZM281.656 362.528L280.816 362.216L284.656 352.976L285.484 353.288L281.656 362.528ZM286.128 357.752C286.128 357.44 286.144 357.116 286.176 356.78C286.208 356.444 286.264 356.116 286.344 355.796C286.432 355.468 286.544 355.156 286.68 354.86C286.824 354.564 287.004 354.308 287.22 354.092C287.444 353.868 287.704 353.692 288 353.564C288.304 353.428 288.656 353.36 289.056 353.36C289.456 353.36 289.804 353.428 290.1 353.564C290.404 353.692 290.664 353.868 290.88 354.092C291.104 354.308 291.284 354.564 291.42 354.86C291.564 355.156 291.676 355.468 291.756 355.796C291.844 356.116 291.904 356.444 291.936 356.78C291.968 357.116 291.984 357.44 291.984 357.752C291.984 358.2 291.944 358.68 291.864 359.192C291.784 359.704 291.636 360.18 291.42 360.62C291.204 361.06 290.904 361.424 290.52 361.712C290.144 362 289.656 362.144 289.056 362.144C288.456 362.144 287.964 362 287.58 361.712C287.204 361.424 286.908 361.06 286.692 360.62C286.476 360.18 286.328 359.704 286.248 359.192C286.168 358.68 286.128 358.2 286.128 357.752ZM287.28 357.752C287.28 358.032 287.296 358.364 287.328 358.748C287.368 359.132 287.448 359.504 287.568 359.864C287.688 360.216 287.864 360.516 288.096 360.764C288.336 361.012 288.656 361.136 289.056 361.136C289.456 361.136 289.772 361.012 290.004 360.764C290.244 360.516 290.424 360.216 290.544 359.864C290.664 359.504 290.74 359.132 290.772 358.748C290.812 358.364 290.832 358.032 290.832 357.752C290.832 357.56 290.824 357.344 290.808 357.104C290.8 356.856 290.772 356.608 290.724 356.36C290.684 356.104 290.624 355.86 290.544 355.628C290.464 355.388 290.356 355.176 290.22 354.992C290.092 354.8 289.932 354.648 289.74 354.536C289.548 354.424 289.32 354.368 289.056 354.368C288.792 354.368 288.564 354.424 288.372 354.536C288.18 354.648 288.016 354.8 287.88 354.992C287.752 355.176 287.648 355.388 287.568 355.628C287.488 355.86 287.424 356.104 287.376 356.36C287.336 356.608 287.308 356.856 287.292 357.104C287.284 357.344 287.28 357.56 287.28 357.752ZM295.964 362.144C295.58 362.144 295.216 362.088 294.872 361.976C294.536 361.856 294.244 361.684 293.996 361.46C293.748 361.236 293.552 360.964 293.408 360.644C293.264 360.324 293.192 359.964 293.192 359.564C293.192 359.3 293.232 359.056 293.312 358.832C293.4 358.608 293.516 358.408 293.66 358.232C293.804 358.048 293.972 357.896 294.164 357.776C294.364 357.648 294.58 357.552 294.812 357.488V357.452C294.652 357.412 294.492 357.34 294.332 357.236C294.172 357.132 294.028 357 293.9 356.84C293.78 356.68 293.68 356.488 293.6 356.264C293.52 356.032 293.48 355.768 293.48 355.472C293.48 355.152 293.544 354.864 293.672 354.608C293.808 354.344 293.988 354.12 294.212 353.936C294.444 353.752 294.708 353.612 295.004 353.516C295.308 353.412 295.628 353.36 295.964 353.36C296.3 353.36 296.616 353.412 296.912 353.516C297.216 353.612 297.48 353.752 297.704 353.936C297.936 354.12 298.116 354.344 298.244 354.608C298.38 354.864 298.448 355.152 298.448 355.472C298.448 355.768 298.408 356.032 298.328 356.264C298.248 356.488 298.144 356.68 298.016 356.84C297.896 357 297.756 357.132 297.596 357.236C297.436 357.34 297.276 357.412 297.116 357.452V357.488C297.348 357.552 297.56 357.648 297.752 357.776C297.952 357.896 298.124 358.048 298.268 358.232C298.412 358.408 298.524 358.608 298.604 358.832C298.692 359.056 298.736 359.3 298.736 359.564C298.736 359.964 298.664 360.324 298.52 360.644C298.376 360.964 298.18 361.236 297.932 361.46C297.684 361.684 297.388 361.856 297.044 361.976C296.708 362.088 296.348 362.144 295.964 362.144ZM294.632 355.64C294.632 355.808 294.66 355.972 294.716 356.132C294.78 356.292 294.868 356.436 294.98 356.564C295.092 356.684 295.228 356.784 295.388 356.864C295.556 356.944 295.748 356.984 295.964 356.984C296.188 356.984 296.38 356.948 296.54 356.876C296.708 356.796 296.848 356.696 296.96 356.576C297.072 356.448 297.156 356.304 297.212 356.144C297.268 355.984 297.296 355.816 297.296 355.64C297.296 355.248 297.172 354.928 296.924 354.68C296.684 354.424 296.364 354.296 295.964 354.296C295.596 354.296 295.28 354.42 295.016 354.668C294.76 354.916 294.632 355.24 294.632 355.64ZM295.964 361.136C296.444 361.136 296.832 360.992 297.128 360.704C297.432 360.408 297.584 360.028 297.584 359.564C297.584 359.308 297.54 359.084 297.452 358.892C297.372 358.692 297.256 358.528 297.104 358.4C296.96 358.264 296.788 358.164 296.588 358.1C296.396 358.028 296.188 357.992 295.964 357.992C295.492 358 295.104 358.152 294.8 358.448C294.496 358.736 294.344 359.108 294.344 359.564C294.344 359.812 294.388 360.036 294.476 360.236C294.564 360.428 294.68 360.592 294.824 360.728C294.976 360.856 295.148 360.956 295.34 361.028C295.54 361.1 295.748 361.136 295.964 361.136Z" fill="#C4C4C4"/>
<path d="M321.36 209.26H321.32C321.1 209.367 320.84 209.42 320.54 209.42C320.287 209.42 320.03 209.377 319.77 209.29C319.51 209.203 319.273 209.07 319.06 208.89C318.853 208.703 318.683 208.47 318.55 208.19C318.417 207.903 318.35 207.567 318.35 207.18C318.35 206.793 318.413 206.453 318.54 206.16C318.673 205.86 318.85 205.61 319.07 205.41C319.29 205.21 319.547 205.06 319.84 204.96C320.133 204.853 320.447 204.8 320.78 204.8C321.113 204.8 321.427 204.853 321.72 204.96C322.013 205.067 322.27 205.22 322.49 205.42C322.71 205.62 322.883 205.86 323.01 206.14C323.143 206.42 323.21 206.733 323.21 207.08C323.21 207.3 323.193 207.5 323.16 207.68C323.127 207.86 323.077 208.033 323.01 208.2C322.95 208.36 322.877 208.52 322.79 208.68C322.703 208.84 322.607 209.003 322.5 209.17L320.71 212H319.58L321.36 209.26ZM322.25 207.11C322.25 206.897 322.213 206.7 322.14 206.52C322.073 206.34 321.973 206.187 321.84 206.06C321.713 205.927 321.56 205.823 321.38 205.75C321.2 205.677 321 205.64 320.78 205.64C320.56 205.64 320.36 205.677 320.18 205.75C320 205.823 319.843 205.927 319.71 206.06C319.583 206.187 319.483 206.34 319.41 206.52C319.343 206.7 319.31 206.897 319.31 207.11C319.31 207.323 319.343 207.52 319.41 207.7C319.483 207.88 319.583 208.037 319.71 208.17C319.843 208.297 320 208.397 320.18 208.47C320.36 208.543 320.56 208.58 320.78 208.58C321 208.58 321.2 208.543 321.38 208.47C321.56 208.397 321.713 208.297 321.84 208.17C321.973 208.037 322.073 207.88 322.14 207.7C322.213 207.52 322.25 207.323 322.25 207.11ZM328.467 205.82H325.597L325.567 207.59C325.613 207.57 325.68 207.55 325.767 207.53C325.853 207.51 325.94 207.493 326.027 207.48C326.12 207.467 326.21 207.457 326.297 207.45C326.383 207.443 326.457 207.44 326.517 207.44C326.85 207.44 327.15 207.497 327.417 207.61C327.69 207.723 327.923 207.883 328.117 208.09C328.31 208.297 328.457 208.543 328.557 208.83C328.663 209.117 328.717 209.433 328.717 209.78C328.717 210.133 328.65 210.453 328.517 210.74C328.39 211.027 328.213 211.273 327.987 211.48C327.76 211.687 327.497 211.847 327.197 211.96C326.897 212.067 326.573 212.12 326.227 212.12C325.747 212.12 325.313 211.997 324.927 211.75C324.54 211.503 324.263 211.15 324.097 210.69L325.067 210.36C325.193 210.687 325.363 210.923 325.577 211.07C325.79 211.21 326.057 211.28 326.377 211.28C326.563 211.28 326.74 211.247 326.907 211.18C327.08 211.113 327.227 211.02 327.347 210.9C327.473 210.773 327.573 210.62 327.647 210.44C327.72 210.26 327.757 210.057 327.757 209.83C327.757 209.31 327.597 208.923 327.277 208.67C326.963 208.41 326.553 208.28 326.047 208.28C325.867 208.28 325.637 208.313 325.357 208.38C325.083 208.44 324.827 208.53 324.587 208.65L324.667 204.92H328.467V205.82Z" fill="#C4C4C4"/>
<path d="M321.36 237.26H321.32C321.1 237.367 320.84 237.42 320.54 237.42C320.287 237.42 320.03 237.377 319.77 237.29C319.51 237.203 319.273 237.07 319.06 236.89C318.853 236.703 318.683 236.47 318.55 236.19C318.417 235.903 318.35 235.567 318.35 235.18C318.35 234.793 318.413 234.453 318.54 234.16C318.673 233.86 318.85 233.61 319.07 233.41C319.29 233.21 319.547 233.06 319.84 232.96C320.133 232.853 320.447 232.8 320.78 232.8C321.113 232.8 321.427 232.853 321.72 232.96C322.013 233.067 322.27 233.22 322.49 233.42C322.71 233.62 322.883 233.86 323.01 234.14C323.143 234.42 323.21 234.733 323.21 235.08C323.21 235.3 323.193 235.5 323.16 235.68C323.127 235.86 323.077 236.033 323.01 236.2C322.95 236.36 322.877 236.52 322.79 236.68C322.703 236.84 322.607 237.003 322.5 237.17L320.71 240H319.58L321.36 237.26ZM322.25 235.11C322.25 234.897 322.213 234.7 322.14 234.52C322.073 234.34 321.973 234.187 321.84 234.06C321.713 233.927 321.56 233.823 321.38 233.75C321.2 233.677 321 233.64 320.78 233.64C320.56 233.64 320.36 233.677 320.18 233.75C320 233.823 319.843 233.927 319.71 234.06C319.583 234.187 319.483 234.34 319.41 234.52C319.343 234.7 319.31 234.897 319.31 235.11C319.31 235.323 319.343 235.52 319.41 235.7C319.483 235.88 319.583 236.037 319.71 236.17C319.843 236.297 320 236.397 320.18 236.47C320.36 236.543 320.56 236.58 320.78 236.58C321 236.58 321.2 236.543 321.38 236.47C321.56 236.397 321.713 236.297 321.84 236.17C321.973 236.037 322.073 235.88 322.14 235.7C322.213 235.52 322.25 235.323 322.25 235.11ZM327.117 238.44H324.097V237.46L326.917 232.92H328.077V237.6H329.077V238.44H328.077V240H327.117V238.44ZM327.117 234.06H327.097L324.937 237.6H327.117V234.06Z" fill="#C4C4C4"/>
<path d="M321.36 97.26H321.32C321.1 97.3667 320.84 97.42 320.54 97.42C320.287 97.42 320.03 97.3767 319.77 97.29C319.51 97.2033 319.273 97.07 319.06 96.89C318.853 96.7033 318.683 96.47 318.55 96.19C318.417 95.9033 318.35 95.5667 318.35 95.18C318.35 94.7933 318.413 94.4533 318.54 94.16C318.673 93.86 318.85 93.61 319.07 93.41C319.29 93.21 319.547 93.06 319.84 92.96C320.133 92.8533 320.447 92.8 320.78 92.8C321.113 92.8 321.427 92.8533 321.72 92.96C322.013 93.0667 322.27 93.22 322.49 93.42C322.71 93.62 322.883 93.86 323.01 94.14C323.143 94.42 323.21 94.7333 323.21 95.08C323.21 95.3 323.193 95.5 323.16 95.68C323.127 95.86 323.077 96.0333 323.01 96.2C322.95 96.36 322.877 96.52 322.79 96.68C322.703 96.84 322.607 97.0033 322.5 97.17L320.71 100H319.58L321.36 97.26ZM322.25 95.11C322.25 94.8967 322.213 94.7 322.14 94.52C322.073 94.34 321.973 94.1867 321.84 94.06C321.713 93.9267 321.56 93.8233 321.38 93.75C321.2 93.6767 321 93.64 320.78 93.64C320.56 93.64 320.36 93.6767 320.18 93.75C320 93.8233 319.843 93.9267 319.71 94.06C319.583 94.1867 319.483 94.34 319.41 94.52C319.343 94.7 319.31 94.8967 319.31 95.11C319.31 95.3233 319.343 95.52 319.41 95.7C319.483 95.88 319.583 96.0367 319.71 96.17C319.843 96.2967 320 96.3967 320.18 96.47C320.36 96.5433 320.56 96.58 320.78 96.58C321 96.58 321.2 96.5433 321.38 96.47C321.56 96.3967 321.713 96.2967 321.84 96.17C321.973 96.0367 322.073 95.88 322.14 95.7C322.213 95.52 322.25 95.3233 322.25 95.11ZM327.117 97.26H327.077C326.857 97.3667 326.597 97.42 326.297 97.42C326.043 97.42 325.787 97.3767 325.527 97.29C325.267 97.2033 325.03 97.07 324.817 96.89C324.61 96.7033 324.44 96.47 324.307 96.19C324.173 95.9033 324.107 95.5667 324.107 95.18C324.107 94.7933 324.17 94.4533 324.297 94.16C324.43 93.86 324.607 93.61 324.827 93.41C325.047 93.21 325.303 93.06 325.597 92.96C325.89 92.8533 326.203 92.8 326.537 92.8C326.87 92.8 327.183 92.8533 327.477 92.96C327.77 93.0667 328.027 93.22 328.247 93.42C328.467 93.62 328.64 93.86 328.767 94.14C328.9 94.42 328.967 94.7333 328.967 95.08C328.967 95.3 328.95 95.5 328.917 95.68C328.883 95.86 328.833 96.0333 328.767 96.2C328.707 96.36 328.633 96.52 328.547 96.68C328.46 96.84 328.363 97.0033 328.257 97.17L326.467 100H325.337L327.117 97.26ZM328.007 95.11C328.007 94.8967 327.97 94.7 327.897 94.52C327.83 94.34 327.73 94.1867 327.597 94.06C327.47 93.9267 327.317 93.8233 327.137 93.75C326.957 93.6767 326.757 93.64 326.537 93.64C326.317 93.64 326.117 93.6767 325.937 93.75C325.757 93.8233 325.6 93.9267 325.467 94.06C325.34 94.1867 325.24 94.34 325.167 94.52C325.1 94.7 325.067 94.8967 325.067 95.11C325.067 95.3233 325.1 95.52 325.167 95.7C325.24 95.88 325.34 96.0367 325.467 96.17C325.6 96.2967 325.757 96.3967 325.937 96.47C326.117 96.5433 326.317 96.58 326.537 96.58C326.757 96.58 326.957 96.5433 327.137 96.47C327.317 96.3967 327.47 96.2967 327.597 96.17C327.73 96.0367 327.83 95.88 327.897 95.7C327.97 95.52 328.007 95.3233 328.007 95.11Z" fill="#C4C4C4"/>
<path d="M321.36 125.26H321.32C321.1 125.367 320.84 125.42 320.54 125.42C320.287 125.42 320.03 125.377 319.77 125.29C319.51 125.203 319.273 125.07 319.06 124.89C318.853 124.703 318.683 124.47 318.55 124.19C318.417 123.903 318.35 123.567 318.35 123.18C318.35 122.793 318.413 122.453 318.54 122.16C318.673 121.86 318.85 121.61 319.07 121.41C319.29 121.21 319.547 121.06 319.84 120.96C320.133 120.853 320.447 120.8 320.78 120.8C321.113 120.8 321.427 120.853 321.72 120.96C322.013 121.067 322.27 121.22 322.49 121.42C322.71 121.62 322.883 121.86 323.01 122.14C323.143 122.42 323.21 122.733 323.21 123.08C323.21 123.3 323.193 123.5 323.16 123.68C323.127 123.86 323.077 124.033 323.01 124.2C322.95 124.36 322.877 124.52 322.79 124.68C322.703 124.84 322.607 125.003 322.5 125.17L320.71 128H319.58L321.36 125.26ZM322.25 123.11C322.25 122.897 322.213 122.7 322.14 122.52C322.073 122.34 321.973 122.187 321.84 122.06C321.713 121.927 321.56 121.823 321.38 121.75C321.2 121.677 321 121.64 320.78 121.64C320.56 121.64 320.36 121.677 320.18 121.75C320 121.823 319.843 121.927 319.71 122.06C319.583 122.187 319.483 122.34 319.41 122.52C319.343 122.7 319.31 122.897 319.31 123.11C319.31 123.323 319.343 123.52 319.41 123.7C319.483 123.88 319.583 124.037 319.71 124.17C319.843 124.297 320 124.397 320.18 124.47C320.36 124.543 320.56 124.58 320.78 124.58C321 124.58 321.2 124.543 321.38 124.47C321.56 124.397 321.713 124.297 321.84 124.17C321.973 124.037 322.073 123.88 322.14 123.7C322.213 123.52 322.25 123.323 322.25 123.11ZM326.537 128.12C326.217 128.12 325.913 128.073 325.627 127.98C325.347 127.88 325.103 127.737 324.897 127.55C324.69 127.363 324.527 127.137 324.407 126.87C324.287 126.603 324.227 126.303 324.227 125.97C324.227 125.75 324.26 125.547 324.327 125.36C324.4 125.173 324.497 125.007 324.617 124.86C324.737 124.707 324.877 124.58 325.037 124.48C325.203 124.373 325.383 124.293 325.577 124.24V124.21C325.443 124.177 325.31 124.117 325.177 124.03C325.043 123.943 324.923 123.833 324.817 123.7C324.717 123.567 324.633 123.407 324.567 123.22C324.5 123.027 324.467 122.807 324.467 122.56C324.467 122.293 324.52 122.053 324.627 121.84C324.74 121.62 324.89 121.433 325.077 121.28C325.27 121.127 325.49 121.01 325.737 120.93C325.99 120.843 326.257 120.8 326.537 120.8C326.817 120.8 327.08 120.843 327.327 120.93C327.58 121.01 327.8 121.127 327.987 121.28C328.18 121.433 328.33 121.62 328.437 121.84C328.55 122.053 328.607 122.293 328.607 122.56C328.607 122.807 328.573 123.027 328.507 123.22C328.44 123.407 328.353 123.567 328.247 123.7C328.147 123.833 328.03 123.943 327.897 124.03C327.763 124.117 327.63 124.177 327.497 124.21V124.24C327.69 124.293 327.867 124.373 328.027 124.48C328.193 124.58 328.337 124.707 328.457 124.86C328.577 125.007 328.67 125.173 328.737 125.36C328.81 125.547 328.847 125.75 328.847 125.97C328.847 126.303 328.787 126.603 328.667 126.87C328.547 127.137 328.383 127.363 328.177 127.55C327.97 127.737 327.723 127.88 327.437 127.98C327.157 128.073 326.857 128.12 326.537 128.12ZM325.427 122.7C325.427 122.84 325.45 122.977 325.497 123.11C325.55 123.243 325.623 123.363 325.717 123.47C325.81 123.57 325.923 123.653 326.057 123.72C326.197 123.787 326.357 123.82 326.537 123.82C326.723 123.82 326.883 123.79 327.017 123.73C327.157 123.663 327.273 123.58 327.367 123.48C327.46 123.373 327.53 123.253 327.577 123.12C327.623 122.987 327.647 122.847 327.647 122.7C327.647 122.373 327.543 122.107 327.337 121.9C327.137 121.687 326.87 121.58 326.537 121.58C326.23 121.58 325.967 121.683 325.747 121.89C325.533 122.097 325.427 122.367 325.427 122.7ZM326.537 127.28C326.937 127.28 327.26 127.16 327.507 126.92C327.76 126.673 327.887 126.357 327.887 125.97C327.887 125.757 327.85 125.57 327.777 125.41C327.71 125.243 327.613 125.107 327.487 125C327.367 124.887 327.223 124.803 327.057 124.75C326.897 124.69 326.723 124.66 326.537 124.66C326.143 124.667 325.82 124.793 325.567 125.04C325.313 125.28 325.187 125.59 325.187 125.97C325.187 126.177 325.223 126.363 325.297 126.53C325.37 126.69 325.467 126.827 325.587 126.94C325.713 127.047 325.857 127.13 326.017 127.19C326.183 127.25 326.357 127.28 326.537 127.28Z" fill="#C4C4C4"/>
<path d="M321.36 181.26H321.32C321.1 181.367 320.84 181.42 320.54 181.42C320.287 181.42 320.03 181.377 319.77 181.29C319.51 181.203 319.273 181.07 319.06 180.89C318.853 180.703 318.683 180.47 318.55 180.19C318.417 179.903 318.35 179.567 318.35 179.18C318.35 178.793 318.413 178.453 318.54 178.16C318.673 177.86 318.85 177.61 319.07 177.41C319.29 177.21 319.547 177.06 319.84 176.96C320.133 176.853 320.447 176.8 320.78 176.8C321.113 176.8 321.427 176.853 321.72 176.96C322.013 177.067 322.27 177.22 322.49 177.42C322.71 177.62 322.883 177.86 323.01 178.14C323.143 178.42 323.21 178.733 323.21 179.08C323.21 179.3 323.193 179.5 323.16 179.68C323.127 179.86 323.077 180.033 323.01 180.2C322.95 180.36 322.877 180.52 322.79 180.68C322.703 180.84 322.607 181.003 322.5 181.17L320.71 184H319.58L321.36 181.26ZM322.25 179.11C322.25 178.897 322.213 178.7 322.14 178.52C322.073 178.34 321.973 178.187 321.84 178.06C321.713 177.927 321.56 177.823 321.38 177.75C321.2 177.677 321 177.64 320.78 177.64C320.56 177.64 320.36 177.677 320.18 177.75C320 177.823 319.843 177.927 319.71 178.06C319.583 178.187 319.483 178.34 319.41 178.52C319.343 178.7 319.31 178.897 319.31 179.11C319.31 179.323 319.343 179.52 319.41 179.7C319.483 179.88 319.583 180.037 319.71 180.17C319.843 180.297 320 180.397 320.18 180.47C320.36 180.543 320.56 180.58 320.78 180.58C321 180.58 321.2 180.543 321.38 180.47C321.56 180.397 321.713 180.297 321.84 180.17C321.973 180.037 322.073 179.88 322.14 179.7C322.213 179.52 322.25 179.323 322.25 179.11ZM325.957 179.66H325.997C326.217 179.553 326.477 179.5 326.777 179.5C327.03 179.5 327.287 179.543 327.547 179.63C327.807 179.717 328.04 179.853 328.247 180.04C328.46 180.22 328.633 180.453 328.767 180.74C328.9 181.02 328.967 181.353 328.967 181.74C328.967 182.133 328.9 182.48 328.767 182.78C328.64 183.073 328.467 183.32 328.247 183.52C328.027 183.72 327.77 183.87 327.477 183.97C327.183 184.07 326.87 184.12 326.537 184.12C326.203 184.12 325.89 184.067 325.597 183.96C325.303 183.853 325.047 183.7 324.827 183.5C324.607 183.3 324.43 183.06 324.297 182.78C324.17 182.5 324.107 182.187 324.107 181.84C324.107 181.62 324.123 181.42 324.157 181.24C324.19 181.06 324.237 180.89 324.297 180.73C324.363 180.563 324.44 180.403 324.527 180.25C324.613 180.09 324.71 179.923 324.817 179.75L326.607 176.92H327.737L325.957 179.66ZM325.067 181.81C325.067 182.023 325.1 182.22 325.167 182.4C325.24 182.58 325.34 182.737 325.467 182.87C325.6 182.997 325.757 183.097 325.937 183.17C326.117 183.243 326.317 183.28 326.537 183.28C326.757 183.28 326.957 183.243 327.137 183.17C327.317 183.097 327.47 182.997 327.597 182.87C327.73 182.737 327.83 182.58 327.897 182.4C327.97 182.22 328.007 182.023 328.007 181.81C328.007 181.597 327.97 181.4 327.897 181.22C327.83 181.04 327.73 180.887 327.597 180.76C327.47 180.627 327.317 180.523 327.137 180.45C326.957 180.377 326.757 180.34 326.537 180.34C326.317 180.34 326.117 180.377 325.937 180.45C325.757 180.523 325.6 180.627 325.467 180.76C325.34 180.887 325.24 181.04 325.167 181.22C325.1 181.4 325.067 181.597 325.067 181.81Z" fill="#C4C4C4"/>
<path d="M321.36 153.26H321.32C321.1 153.367 320.84 153.42 320.54 153.42C320.287 153.42 320.03 153.377 319.77 153.29C319.51 153.203 319.273 153.07 319.06 152.89C318.853 152.703 318.683 152.47 318.55 152.19C318.417 151.903 318.35 151.567 318.35 151.18C318.35 150.793 318.413 150.453 318.54 150.16C318.673 149.86 318.85 149.61 319.07 149.41C319.29 149.21 319.547 149.06 319.84 148.96C320.133 148.853 320.447 148.8 320.78 148.8C321.113 148.8 321.427 148.853 321.72 148.96C322.013 149.067 322.27 149.22 322.49 149.42C322.71 149.62 322.883 149.86 323.01 150.14C323.143 150.42 323.21 150.733 323.21 151.08C323.21 151.3 323.193 151.5 323.16 151.68C323.127 151.86 323.077 152.033 323.01 152.2C322.95 152.36 322.877 152.52 322.79 152.68C322.703 152.84 322.607 153.003 322.5 153.17L320.71 156H319.58L321.36 153.26ZM322.25 151.11C322.25 150.897 322.213 150.7 322.14 150.52C322.073 150.34 321.973 150.187 321.84 150.06C321.713 149.927 321.56 149.823 321.38 149.75C321.2 149.677 321 149.64 320.78 149.64C320.56 149.64 320.36 149.677 320.18 149.75C320 149.823 319.843 149.927 319.71 150.06C319.583 150.187 319.483 150.34 319.41 150.52C319.343 150.7 319.31 150.897 319.31 151.11C319.31 151.323 319.343 151.52 319.41 151.7C319.483 151.88 319.583 152.037 319.71 152.17C319.843 152.297 320 152.397 320.18 152.47C320.36 152.543 320.56 152.58 320.78 152.58C321 152.58 321.2 152.543 321.38 152.47C321.56 152.397 321.713 152.297 321.84 152.17C321.973 152.037 322.073 151.88 322.14 151.7C322.213 151.52 322.25 151.323 322.25 151.11ZM327.597 149.76H324.177V148.92H328.627V149.74L325.807 156H324.727L327.597 149.76Z" fill="#C4C4C4"/>
<path d="M320.7 66.02L319.4 67.22L318.84 66.55L320.81 64.92H321.66V72H320.7V66.02ZM324.097 68.46C324.097 68.2 324.11 67.93 324.137 67.65C324.163 67.37 324.21 67.0967 324.277 66.83C324.35 66.5567 324.443 66.2967 324.557 66.05C324.677 65.8033 324.827 65.59 325.007 65.41C325.193 65.2233 325.41 65.0767 325.657 64.97C325.91 64.8567 326.203 64.8 326.537 64.8C326.87 64.8 327.16 64.8567 327.407 64.97C327.66 65.0767 327.877 65.2233 328.057 65.41C328.243 65.59 328.393 65.8033 328.507 66.05C328.627 66.2967 328.72 66.5567 328.787 66.83C328.86 67.0967 328.91 67.37 328.937 67.65C328.963 67.93 328.977 68.2 328.977 68.46C328.977 68.8333 328.943 69.2333 328.877 69.66C328.81 70.0867 328.687 70.4833 328.507 70.85C328.327 71.2167 328.077 71.52 327.757 71.76C327.443 72 327.037 72.12 326.537 72.12C326.037 72.12 325.627 72 325.307 71.76C324.993 71.52 324.747 71.2167 324.567 70.85C324.387 70.4833 324.263 70.0867 324.197 69.66C324.13 69.2333 324.097 68.8333 324.097 68.46ZM325.057 68.46C325.057 68.6933 325.07 68.97 325.097 69.29C325.13 69.61 325.197 69.92 325.297 70.22C325.397 70.5133 325.543 70.7633 325.737 70.97C325.937 71.1767 326.203 71.28 326.537 71.28C326.87 71.28 327.133 71.1767 327.327 70.97C327.527 70.7633 327.677 70.5133 327.777 70.22C327.877 69.92 327.94 69.61 327.967 69.29C328 68.97 328.017 68.6933 328.017 68.46C328.017 68.3 328.01 68.12 327.997 67.92C327.99 67.7133 327.967 67.5067 327.927 67.3C327.893 67.0867 327.843 66.8833 327.777 66.69C327.71 66.49 327.62 66.3133 327.507 66.16C327.4 66 327.267 65.8733 327.107 65.78C326.947 65.6867 326.757 65.64 326.537 65.64C326.317 65.64 326.127 65.6867 325.967 65.78C325.807 65.8733 325.67 66 325.557 66.16C325.45 66.3133 325.363 66.49 325.297 66.69C325.23 66.8833 325.177 67.0867 325.137 67.3C325.103 67.5067 325.08 67.7133 325.067 67.92C325.06 68.12 325.057 68.3 325.057 68.46ZM329.853 68.46C329.853 68.2 329.867 67.93 329.893 67.65C329.92 67.37 329.967 67.0967 330.033 66.83C330.107 66.5567 330.2 66.2967 330.313 66.05C330.433 65.8033 330.583 65.59 330.763 65.41C330.95 65.2233 331.167 65.0767 331.413 64.97C331.667 64.8567 331.96 64.8 332.293 64.8C332.627 64.8 332.917 64.8567 333.163 64.97C333.417 65.0767 333.633 65.2233 333.813 65.41C334 65.59 334.15 65.8033 334.263 66.05C334.383 66.2967 334.477 66.5567 334.543 66.83C334.617 67.0967 334.667 67.37 334.693 67.65C334.72 67.93 334.733 68.2 334.733 68.46C334.733 68.8333 334.7 69.2333 334.633 69.66C334.567 70.0867 334.443 70.4833 334.263 70.85C334.083 71.2167 333.833 71.52 333.513 71.76C333.2 72 332.793 72.12 332.293 72.12C331.793 72.12 331.383 72 331.063 71.76C330.75 71.52 330.503 71.2167 330.323 70.85C330.143 70.4833 330.02 70.0867 329.953 69.66C329.887 69.2333 329.853 68.8333 329.853 68.46ZM330.813 68.46C330.813 68.6933 330.827 68.97 330.853 69.29C330.887 69.61 330.953 69.92 331.053 70.22C331.153 70.5133 331.3 70.7633 331.493 70.97C331.693 71.1767 331.96 71.28 332.293 71.28C332.627 71.28 332.89 71.1767 333.083 70.97C333.283 70.7633 333.433 70.5133 333.533 70.22C333.633 69.92 333.697 69.61 333.723 69.29C333.757 68.97 333.773 68.6933 333.773 68.46C333.773 68.3 333.767 68.12 333.753 67.92C333.747 67.7133 333.723 67.5067 333.683 67.3C333.65 67.0867 333.6 66.8833 333.533 66.69C333.467 66.49 333.377 66.3133 333.263 66.16C333.157 66 333.023 65.8733 332.863 65.78C332.703 65.6867 332.513 65.64 332.293 65.64C332.073 65.64 331.883 65.6867 331.723 65.78C331.563 65.8733 331.427 66 331.313 66.16C331.207 66.3133 331.12 66.49 331.053 66.69C330.987 66.8833 330.933 67.0867 330.893 67.3C330.86 67.5067 330.837 67.7133 330.823 67.92C330.817 68.12 330.813 68.3 330.813 68.46Z" fill="#C4C4C4"/>
<path d="M12.54 43.1C12.3267 43.44 12.14 43.7667 11.98 44.08C11.82 44.3933 11.6867 44.7133 11.58 45.04C11.4733 45.36 11.3933 45.6933 11.34 46.04C11.2867 46.3867 11.26 46.76 11.26 47.16C11.26 47.8933 11.3667 48.6033 11.58 49.29C11.7933 49.9767 12.1133 50.6133 12.54 51.2L11.94 51.6C11.48 50.9733 11.12 50.2833 10.86 49.53C10.6067 48.7767 10.48 47.9867 10.48 47.16C10.48 46.3933 10.6033 45.6267 10.85 44.86C11.0967 44.0933 11.46 43.38 11.94 42.72L12.54 43.1ZM13.6632 42.44H14.5632V47.32L16.6032 45.27H17.8532L15.6432 47.42L18.0432 50H16.7632L14.5632 47.54V50H13.6632V42.44ZM23.7988 49.96C23.7988 50.32 23.7354 50.6467 23.6088 50.94C23.4888 51.24 23.3154 51.4967 23.0887 51.71C22.8621 51.93 22.5887 52.1 22.2687 52.22C21.9487 52.34 21.5954 52.4 21.2087 52.4C20.7554 52.4 20.3387 52.3367 19.9587 52.21C19.5854 52.0833 19.2287 51.8633 18.8887 51.55L19.4987 50.79C19.7321 51.0433 19.9854 51.2333 20.2587 51.36C20.5321 51.4933 20.8421 51.56 21.1887 51.56C21.5221 51.56 21.7987 51.51 22.0187 51.41C22.2387 51.3167 22.4121 51.1933 22.5387 51.04C22.6721 50.8867 22.7654 50.71 22.8187 50.51C22.8721 50.3167 22.8987 50.12 22.8987 49.92V49.22H22.8687C22.6954 49.5067 22.4587 49.72 22.1587 49.86C21.8654 49.9933 21.5554 50.06 21.2287 50.06C20.8821 50.06 20.5587 50 20.2587 49.88C19.9654 49.7533 19.7121 49.5833 19.4987 49.37C19.2854 49.15 19.1187 48.8933 18.9987 48.6C18.8787 48.3 18.8187 47.9767 18.8187 47.63C18.8187 47.2833 18.8754 46.96 18.9887 46.66C19.1021 46.3533 19.2621 46.0867 19.4687 45.86C19.6821 45.6333 19.9354 45.4567 20.2287 45.33C20.5287 45.2033 20.8621 45.14 21.2287 45.14C21.5487 45.14 21.8587 45.21 22.1587 45.35C22.4654 45.49 22.7054 45.6867 22.8787 45.94H22.8987V45.26H23.7988V49.96ZM21.3387 45.98C21.0987 45.98 20.8821 46.0233 20.6887 46.11C20.4954 46.19 20.3321 46.3033 20.1987 46.45C20.0654 46.59 19.9621 46.7633 19.8887 46.97C19.8154 47.17 19.7787 47.39 19.7787 47.63C19.7787 48.11 19.9187 48.4967 20.1987 48.79C20.4787 49.0767 20.8587 49.22 21.3387 49.22C21.8187 49.22 22.1987 49.0767 22.4787 48.79C22.7587 48.4967 22.8987 48.11 22.8987 47.63C22.8987 47.39 22.8621 47.17 22.7887 46.97C22.7154 46.7633 22.6121 46.59 22.4787 46.45C22.3454 46.3033 22.1821 46.19 21.9887 46.11C21.7954 46.0233 21.5787 45.98 21.3387 45.98ZM24.922 51.22C25.1354 50.88 25.322 50.5533 25.482 50.24C25.642 49.9267 25.7754 49.61 25.882 49.29C25.9887 48.9633 26.0687 48.6267 26.122 48.28C26.1754 47.9333 26.202 47.56 26.202 47.16C26.202 46.4267 26.0954 45.7167 25.882 45.03C25.6687 44.3433 25.3487 43.7067 24.922 43.12L25.522 42.72C25.982 43.3467 26.3387 44.0367 26.592 44.79C26.852 45.5433 26.982 46.3333 26.982 47.16C26.982 47.9267 26.8587 48.6933 26.612 49.46C26.3654 50.2267 26.002 50.94 25.522 51.6L24.922 51.22Z" fill="#C4C4C4"/>
<path d="M320.54 43.1C320.327 43.44 320.14 43.7667 319.98 44.08C319.82 44.3933 319.687 44.7133 319.58 45.04C319.473 45.36 319.393 45.6933 319.34 46.04C319.287 46.3867 319.26 46.76 319.26 47.16C319.26 47.8933 319.367 48.6033 319.58 49.29C319.793 49.9767 320.113 50.6133 320.54 51.2L319.94 51.6C319.48 50.9733 319.12 50.2833 318.86 49.53C318.607 48.7767 318.48 47.9867 318.48 47.16C318.48 46.3933 318.603 45.6267 318.85 44.86C319.097 44.0933 319.46 43.38 319.94 42.72L320.54 43.1ZM323.333 50.31L322.733 50L327.183 42.6L327.783 42.91L323.333 50.31ZM321.353 44.51C321.353 44.2633 321.4 44.0333 321.493 43.82C321.587 43.6067 321.713 43.42 321.873 43.26C322.033 43.1 322.22 42.9733 322.433 42.88C322.647 42.7867 322.877 42.74 323.123 42.74C323.37 42.74 323.6 42.7867 323.813 42.88C324.027 42.9733 324.213 43.1 324.373 43.26C324.533 43.42 324.66 43.6067 324.753 43.82C324.847 44.0333 324.893 44.2633 324.893 44.51C324.893 44.7567 324.847 44.9867 324.753 45.2C324.66 45.4133 324.533 45.6 324.373 45.76C324.213 45.92 324.027 46.0467 323.813 46.14C323.6 46.2333 323.37 46.28 323.123 46.28C322.877 46.28 322.647 46.2333 322.433 46.14C322.22 46.0467 322.033 45.92 321.873 45.76C321.713 45.6 321.587 45.4133 321.493 45.2C321.4 44.9867 321.353 44.7567 321.353 44.51ZM322.133 44.51C322.133 44.79 322.227 45.0267 322.413 45.22C322.607 45.4067 322.843 45.5 323.123 45.5C323.403 45.5 323.637 45.4067 323.823 45.22C324.017 45.0267 324.113 44.79 324.113 44.51C324.113 44.23 324.017 43.9967 323.823 43.81C323.637 43.6167 323.403 43.52 323.123 43.52C322.843 43.52 322.607 43.6167 322.413 43.81C322.227 43.9967 322.133 44.23 322.133 44.51ZM325.593 48.41C325.593 48.1633 325.64 47.9333 325.733 47.72C325.827 47.5067 325.953 47.32 326.113 47.16C326.273 47 326.46 46.8733 326.673 46.78C326.887 46.6867 327.117 46.64 327.363 46.64C327.61 46.64 327.84 46.6867 328.053 46.78C328.267 46.8733 328.453 47 328.613 47.16C328.773 47.32 328.9 47.5067 328.993 47.72C329.087 47.9333 329.133 48.1633 329.133 48.41C329.133 48.6567 329.087 48.8867 328.993 49.1C328.9 49.3133 328.773 49.5 328.613 49.66C328.453 49.82 328.267 49.9467 328.053 50.04C327.84 50.1333 327.61 50.18 327.363 50.18C327.117 50.18 326.887 50.1333 326.673 50.04C326.46 49.9467 326.273 49.82 326.113 49.66C325.953 49.5 325.827 49.3133 325.733 49.1C325.64 48.8867 325.593 48.6567 325.593 48.41ZM326.373 48.41C326.373 48.69 326.467 48.9267 326.653 49.12C326.847 49.3067 327.083 49.4 327.363 49.4C327.643 49.4 327.877 49.3067 328.063 49.12C328.257 48.9267 328.353 48.69 328.353 48.41C328.353 48.13 328.257 47.8967 328.063 47.71C327.877 47.5167 327.643 47.42 327.363 47.42C327.083 47.42 326.847 47.5167 326.653 47.71C326.467 47.8967 326.373 48.13 326.373 48.41ZM329.939 51.22C330.152 50.88 330.339 50.5533 330.499 50.24C330.659 49.9267 330.792 49.61 330.899 49.29C331.005 48.9633 331.085 48.6267 331.139 48.28C331.192 47.9333 331.219 47.56 331.219 47.16C331.219 46.4267 331.112 45.7167 330.899 45.03C330.685 44.3433 330.365 43.7067 329.939 43.12L330.539 42.72C330.999 43.3467 331.355 44.0367 331.609 44.79C331.869 45.5433 331.999 46.3333 331.999 47.16C331.999 47.9267 331.875 48.6933 331.629 49.46C331.382 50.2267 331.019 50.94 330.539 51.6L329.939 51.22Z" fill="#C4C4C4"/>
<rect x="41" y="172" width="18" height="172" fill="#929AA3"/>
<rect x="59" y="173.132" width="18" height="170.868" fill="#B6C0CC"/>
<line x1="96.5" y1="338" x2="96.5" y2="344" stroke="#C4C4C4"/>
<rect x="116" y="152" width="18" height="192" fill="#929AA3"/>
<rect x="134" y="153.263" width="18" height="190.737" fill="#B6C0CC"/>
<line x1="172.5" y1="338" x2="172.5" y2="344" stroke="#C4C4C4"/>
<rect x="191" y="177" width="18" height="167" fill="#929AA3"/>
<rect x="209" y="178.099" width="18" height="165.901" fill="#B6C0CC"/>
<rect x="266" y="172" width="18" height="172" fill="#929AA3"/>
<rect x="284" y="173.132" width="18" height="170.868" fill="#B6C0CC"/>
<line x1="246.5" y1="338" x2="246.5" y2="344" stroke="#C4C4C4"/>
<circle cx="58.5" cy="87.5" r="3.5" fill="#E0935A"/>
<circle cx="133.5" cy="94.5" r="3.5" fill="#E0935A"/>
<circle cx="208.5" cy="98.5" r="3.5" fill="#E0935A"/>
<circle cx="283.5" cy="94.5" r="3.5" fill="#E0935A"/>
<line x1="59.0465" y1="87.5022" x2="134.046" y2="94.5022" stroke="#E0935A"/>
<line x1="134.027" y1="94.5007" x2="209.027" y2="98.5007" stroke="#E0935A"/>
<line x1="207.974" y1="98.5007" x2="283.974" y2="94.5007" stroke="#E0935A"/>
</svg>
