<svg width="20" height="20" viewBox="0 0 20 20" fill="none" xmlns="http://www.w3.org/2000/svg">
<path d="M10.1667 1.41675C5.33472 1.41675 1.41675 5.33472 1.41675 10.1667C1.41675 14.9988 5.33472 18.9167 10.1667 18.9167C14.9988 18.9167 18.9167 14.9988 18.9167 10.1667C18.9167 5.33472 14.9988 1.41675 10.1667 1.41675ZM14.3718 8.01245C14.3777 8.10425 14.3777 8.19995 14.3777 8.2937C14.3777 11.1609 12.1941 14.4636 8.20386 14.4636C6.97339 14.4636 5.83276 14.1062 4.87183 13.491C5.04761 13.5105 5.21558 13.5183 5.39526 13.5183C6.41089 13.5183 7.34448 13.1746 8.08862 12.5925C7.1355 12.573 6.33472 11.948 6.06128 11.0886C6.39526 11.1375 6.69604 11.1375 7.03979 11.0496C6.54903 10.9499 6.10791 10.6833 5.79139 10.2952C5.47487 9.90715 5.30246 9.42145 5.30347 8.92065V8.89331C5.59058 9.05542 5.92847 9.15503 6.28198 9.1687C5.9848 8.97064 5.74108 8.70232 5.57243 8.38751C5.40379 8.0727 5.31543 7.72115 5.31519 7.36401C5.31519 6.95972 5.42065 6.59058 5.61011 6.27026C6.15484 6.94084 6.83458 7.48929 7.60516 7.87996C8.37573 8.27063 9.21989 8.49478 10.0828 8.53784C9.77612 7.06323 10.8777 5.86987 12.2019 5.86987C12.8269 5.86987 13.3894 6.13159 13.7859 6.55347C14.2761 6.46167 14.7449 6.27808 15.1628 6.03198C15.0007 6.53394 14.6609 6.95776 14.2097 7.22534C14.6472 7.17847 15.0691 7.05737 15.4597 6.88745C15.1648 7.32104 14.7957 7.70581 14.3718 8.01245Z" fill="black"/>
</svg>
