<svg width="74" height="74" viewBox="0 0 74 74" fill="none" xmlns="http://www.w3.org/2000/svg">
<circle cx="37" cy="37" r="37" fill="#50555C"/>
<path d="M49.25 26.25H38.75V15.75C38.75 15.2859 38.5656 14.8408 38.2374 14.5126C37.9092 14.1844 37.4641 14 37 14C36.5359 14 36.0908 14.1844 35.7626 14.5126C35.4344 14.8408 35.25 15.2859 35.25 15.75V26.25H24.75C24.2859 26.25 23.8408 26.4344 23.5126 26.7626C23.1844 27.0908 23 27.5359 23 28C23 28.4641 23.1844 28.9092 23.5126 29.2374C23.8408 29.5656 24.2859 29.75 24.75 29.75H35.25V40.25C35.25 40.7141 35.4344 41.1593 35.7626 41.4874C36.0908 41.8156 36.5359 42 37 42C37.4641 42 37.9092 41.8156 38.2374 41.4874C38.5656 41.1593 38.75 40.7141 38.75 40.25V29.75H49.25C49.7141 29.75 50.1593 29.5656 50.4874 29.2374C50.8156 28.9092 51 28.4641 51 28C51 27.5359 50.8156 27.0908 50.4874 26.7626C50.1593 26.4344 49.7141 26.25 49.25 26.25Z" fill="white"/>
<path d="M23.53 52.13H21.48V49.95C21.48 49.3 21.49 49.16 21.53 49.03C21.56 48.95 21.59 48.9 21.59 48.83C21.59 48.77 21.53 48.74 21.44 48.73C21.09 48.69 20.72 48.66 20.34 48.65C20.39 49.04 20.41 49.35 20.41 49.94V52.13H18.48V51.04C18.48 50.48 18.49 50.28 18.54 50.16C18.56 50.08 18.59 50.03 18.59 49.96C18.59 49.9 18.54 49.85 18.44 49.84C18.1 49.8 17.77 49.78 17.39 49.77C17.44 50.17 17.45 50.47 17.45 51.05V52.55C17.45 53.15 17.43 53.43 17.43 53.5C17.43 53.6 17.44 53.61 17.54 53.61H18.37C18.47 53.61 18.48 53.6 18.48 53.5V53.09H20.41V56.17H18.16V55.43C18.16 54.88 18.18 54.68 18.23 54.56C18.25 54.5 18.29 54.43 18.29 54.36C18.29 54.3 18.22 54.26 18.12 54.25C17.78 54.21 17.45 54.19 17.07 54.18C17.12 54.57 17.13 54.87 17.13 55.44V56.76C17.13 57.32 17.11 57.57 17.11 57.64C17.11 57.73 17.12 57.74 17.23 57.74H18.05C18.15 57.74 18.16 57.73 18.16 57.64V57.13H23.85V57.59C23.85 57.68 23.86 57.69 23.96 57.69H24.78C24.88 57.69 24.89 57.68 24.89 57.59C24.89 57.53 24.87 57.27 24.87 56.71V55.5C24.87 54.84 24.89 54.65 24.94 54.52C24.96 54.46 24.99 54.39 24.99 54.32C24.99 54.27 24.93 54.22 24.84 54.21C24.5 54.17 24.17 54.15 23.79 54.14C23.84 54.53 23.85 54.83 23.85 55.41V56.17H21.48V53.09H23.53V53.46C23.53 53.57 23.54 53.58 23.65 53.58H24.48C24.57 53.58 24.58 53.57 24.58 53.46C24.58 53.4 24.56 53.11 24.56 52.51V51.1C24.56 50.44 24.58 50.25 24.63 50.12C24.65 50.06 24.68 49.99 24.68 49.92C24.68 49.86 24.62 49.82 24.52 49.81C24.17 49.77 23.85 49.75 23.48 49.74C23.52 50.13 23.53 50.44 23.53 51.01V52.13ZM29.83 49.01C28.89 49.01 28.56 48.99 28.5 48.99C28.4 48.99 28.39 49 28.39 49.1C28.39 49.17 28.41 49.43 28.41 50.03V51.48C28.41 52.08 28.39 52.34 28.39 52.4C28.39 52.51 28.4 52.52 28.5 52.52C28.56 52.52 28.89 52.5 29.83 52.5H32.59C33.54 52.5 33.86 52.52 33.93 52.52C34.03 52.52 34.04 52.51 34.04 52.4C34.04 52.34 34.02 52.08 34.02 51.48V50.03C34.02 49.43 34.04 49.17 34.04 49.1C34.04 49 34.03 48.99 33.93 48.99C33.86 48.99 33.54 49.01 32.59 49.01H29.83ZM29.44 49.97H32.99V51.54H29.44V49.97ZM32.49 57.76C32.59 57.76 32.6 57.75 32.6 57.65V57.16H34.38V57.6C34.38 57.71 34.39 57.72 34.49 57.72H35.28C35.38 57.72 35.39 57.71 35.39 57.6C35.39 57.54 35.37 57.26 35.37 55.76V54.69C35.37 53.89 35.39 53.6 35.39 53.54C35.39 53.43 35.38 53.42 35.28 53.42C35.22 53.42 34.96 53.44 34.19 53.44H32.81C32.04 53.44 31.78 53.42 31.71 53.42C31.62 53.42 31.61 53.43 31.61 53.54C31.61 53.6 31.63 53.89 31.63 54.84V55.77C31.63 57.3 31.61 57.58 31.61 57.65C31.61 57.75 31.62 57.76 31.71 57.76H32.49ZM32.6 54.38H34.38V56.23H32.6V54.38ZM27.92 57.76C28.02 57.76 28.03 57.75 28.03 57.64V57.16H29.69V57.57C29.69 57.67 29.7 57.68 29.79 57.68H30.57C30.67 57.68 30.68 57.67 30.68 57.57C30.68 57.51 30.66 57.22 30.66 55.72V54.67C30.66 53.88 30.68 53.59 30.68 53.53C30.68 53.43 30.67 53.42 30.57 53.42C30.5 53.42 30.25 53.44 29.5 53.44H28.19C27.45 53.44 27.2 53.42 27.13 53.42C27.03 53.42 27.02 53.43 27.02 53.53C27.02 53.6 27.04 53.88 27.04 54.84V55.77C27.04 57.3 27.02 57.58 27.02 57.64C27.02 57.75 27.03 57.76 27.13 57.76H27.92ZM28.03 54.38H29.69V56.23H28.03V54.38ZM41.37 50.45C40.17 50.52 38.88 50.6 38.27 50.65C37.74 50.69 37.42 50.73 37.05 50.69C37.13 51.1 37.22 51.5 37.3 51.7C37.33 51.8 37.37 51.84 37.47 51.84C37.56 51.84 37.72 51.75 37.94 51.72C38.73 51.61 40.14 51.49 41.4 51.42C41.4 51.75 41.41 52.09 41.41 52.44C41.25 52.3 40.95 52.24 40.65 52.24C39.84 52.24 39.14 52.81 39.14 53.74C39.14 54.7 39.74 55.27 40.53 55.27C40.86 55.27 41.27 55.16 41.47 54.87C41.29 55.71 40.59 56.55 39.42 57.07C39.68 57.15 39.95 57.28 40.18 57.47C40.28 57.55 40.39 57.62 40.48 57.62C40.57 57.62 40.7 57.54 40.87 57.43C42.18 56.57 42.65 55.36 42.65 54.2C42.65 53.87 42.6 53.48 42.5 53.21C42.49 52.6 42.49 51.96 42.49 51.35C43.53 51.34 44.5 51.34 45.54 51.37C45.66 51.38 45.71 51.35 45.71 51.24C45.72 50.99 45.72 50.73 45.71 50.48C45.7 50.35 45.68 50.33 45.56 50.33C44.6 50.33 43.57 50.34 42.49 50.38C42.5 50 42.5 49.87 42.51 49.74C42.53 49.61 42.56 49.51 42.59 49.45C42.65 49.35 42.68 49.3 42.68 49.22C42.68 49.13 42.57 49.06 42.4 49.03C42.16 48.98 41.68 48.92 41.23 48.89C41.31 49.19 41.33 49.33 41.35 49.62C41.36 49.89 41.36 50.14 41.37 50.45ZM40.73 53.02C41.13 53.02 41.39 53.25 41.39 53.66C41.39 54.12 41.08 54.35 40.71 54.35C40.35 54.35 40.07 54.11 40.07 53.67C40.07 53.23 40.42 53.02 40.73 53.02ZM50.5696 52.78C51.3296 52.05 51.9996 51.35 52.7296 50.64C52.9196 50.47 52.9996 50.4 53.1696 50.32C53.2796 50.27 53.3396 50.18 53.3396 50.08C53.3396 50 53.3096 49.93 53.2296 49.84C53.0596 49.63 52.8596 49.43 52.5596 49.2C52.4896 49.15 52.4296 49.12 52.3296 49.12C52.2796 49.12 52.1896 49.17 52.1396 49.2C52.0396 49.25 51.8396 49.3 51.5896 49.35C50.8096 49.5 49.9296 49.63 49.3196 49.69C49.0196 49.71 48.6896 49.71 48.3896 49.67C48.5296 50.24 48.6196 50.52 48.7396 50.75C48.7896 50.87 48.8596 50.92 48.9596 50.92C49.0096 50.92 49.1096 50.89 49.1596 50.87C49.3196 50.81 49.4496 50.78 49.5796 50.75C50.1996 50.62 50.9096 50.48 51.5096 50.37C51.0496 50.94 50.5796 51.44 49.9596 52.08C49.0596 53.02 48.3696 53.66 47.5896 54.29C47.5096 54.37 47.4796 54.44 47.5396 54.52C47.6996 54.73 47.9196 54.99 48.1296 55.17C48.1896 55.23 48.2396 55.26 48.2796 55.26C48.3296 55.26 48.3796 55.22 48.4496 55.15C48.7496 54.85 49.0296 54.56 49.3196 54.3C50.1296 53.61 51.0496 53.24 51.8796 53.24C52.8096 53.24 53.4496 53.84 53.4496 54.75C53.4496 55.51 53.1296 55.95 52.4296 56.27C52.1796 55.31 51.4896 54.81 50.5496 54.81C49.7696 54.81 49.1396 55.36 49.1396 56.03C49.1396 56.96 49.8996 57.5 51.1596 57.5C53.2996 57.5 54.6496 56.43 54.6496 54.76C54.6496 53.32 53.6296 52.36 52.1696 52.36C51.6096 52.36 51.1396 52.49 50.5796 52.81L50.5696 52.78ZM51.4396 56.52C51.2896 56.55 51.1596 56.56 50.9796 56.56C50.3796 56.56 50.1096 56.35 50.1096 56.04C50.1096 55.83 50.2996 55.66 50.5896 55.66C51.0096 55.66 51.3096 55.97 51.4396 56.52Z" fill="white"/>
</svg>
