<svg width="30" height="30" viewBox="0 0 30 30" fill="none" xmlns="http://www.w3.org/2000/svg">
<path d="M23.9734 21.3018L23.3859 18.8808C23.4574 18.7199 23.5298 18.5466 23.5866 18.4078L25.7485 17.1649C25.8543 17.1041 25.9449 17.0199 26.0134 16.9189C26.0818 16.8178 26.1264 16.7025 26.1436 16.5817C26.2799 15.6283 26.2926 14.6614 26.1814 13.7048C26.1673 13.5835 26.1257 13.467 26.0598 13.3642C25.9939 13.2614 25.9055 13.1749 25.8012 13.1114L23.6791 11.818C23.6187 11.6533 23.5537 11.4904 23.484 11.3292L24.1313 8.93085C24.1631 8.81302 24.1677 8.68949 24.1446 8.56963C24.1215 8.44978 24.0715 8.33675 23.9983 8.23912C23.4205 7.46867 22.7457 6.77597 21.9906 6.17817C21.8949 6.1024 21.7831 6.04944 21.6639 6.0233C21.5446 5.99717 21.4209 5.99854 21.3023 6.02732L18.8871 6.61342C18.7278 6.53979 18.5666 6.47057 18.4036 6.40586L17.1654 4.25218C17.1045 4.14638 17.0204 4.05582 16.9194 3.98736C16.8183 3.9189 16.703 3.87434 16.5822 3.85706C15.6289 3.72083 14.6619 3.70814 13.7053 3.81931C13.584 3.83343 13.4675 3.875 13.3647 3.94087C13.2618 4.00673 13.1753 4.09516 13.1118 4.19944L11.8185 6.32164C11.6539 6.38205 11.491 6.44711 11.3297 6.51681L8.93139 5.86928C8.81357 5.83748 8.69005 5.83293 8.57021 5.85597C8.45036 5.87901 8.33733 5.92904 8.2397 6.00227C7.46921 6.58011 6.77648 7.25495 6.17867 8.01005C6.10289 8.10579 6.04993 8.21752 6.0238 8.33678C5.99767 8.45604 5.99906 8.57969 6.02786 8.69833L6.61533 11.1193C6.54382 11.2802 6.47141 11.4535 6.41467 11.5923L4.25268 12.8353C4.14686 12.8961 4.05629 12.9803 3.98783 13.0813C3.91937 13.1824 3.87482 13.2977 3.85756 13.4185C3.72133 14.3718 3.70864 15.3388 3.81981 16.2954C3.83393 16.4167 3.87551 16.5332 3.94138 16.636C4.00726 16.7388 4.09569 16.8253 4.19998 16.8888L6.32214 18.1822C6.38252 18.3469 6.44755 18.5098 6.51722 18.6709L5.86991 21.0692C5.8381 21.1871 5.83354 21.3106 5.85659 21.4305C5.87965 21.5504 5.9297 21.6634 6.00295 21.7611C6.58075 22.5315 7.25551 23.2242 8.01055 23.822C8.1063 23.8978 8.21805 23.9508 8.33733 23.9769C8.4566 24.0031 8.58026 24.0017 8.69892 23.9729L11.1141 23.3868C11.2732 23.4605 11.4346 23.5298 11.5976 23.5943L12.8358 25.748C12.8966 25.8538 12.9808 25.9444 13.0818 26.0129C13.1829 26.0813 13.2982 26.1259 13.419 26.1431C14.3723 26.2794 15.3393 26.2921 16.2959 26.1809C16.4172 26.1668 16.5337 26.1252 16.6365 26.0593C16.7394 25.9935 16.8259 25.905 16.8894 25.8008L18.1858 23.6735C18.3455 23.6116 18.5043 23.5474 18.6622 23.4809L21.0698 24.1307C21.1876 24.1625 21.3111 24.1671 21.431 24.1441C21.5508 24.1211 21.6639 24.071 21.7615 23.9978C22.532 23.42 23.2248 22.7452 23.8226 21.99C23.8983 21.8943 23.9513 21.7826 23.9774 21.6633C24.0036 21.5441 24.0022 21.4204 23.9734 21.3018ZM13.2567 19.0623C12.4532 18.7174 11.7701 18.142 11.2937 17.4089C10.8173 16.6757 10.569 15.8177 10.5802 14.9435C10.5913 14.0692 10.8615 13.2179 11.3566 12.4971C11.8516 11.7764 12.5492 11.2187 13.3612 10.8944C14.1732 10.5702 15.0631 10.494 15.9184 10.6756C16.7737 10.8571 17.556 11.2882 18.1663 11.9143C18.7766 12.5404 19.1875 13.3335 19.3471 14.1931C19.5067 15.0528 19.4078 15.9405 19.0629 16.7439C18.5993 17.8204 17.7277 18.6691 16.6392 19.1037C15.5507 19.5383 14.3342 19.5234 13.2567 19.0623Z" fill="black"/>
</svg>
