<svg width="26" height="26" viewBox="0 0 26 26" fill="none" xmlns="http://www.w3.org/2000/svg">
<path d="M13 22C12.8619 21.9996 12.7278 21.9535 12.6187 21.869C9.14313 19.175 6.74899 16.8551 5.07372 14.5663C2.93588 11.6415 2.4483 8.9412 3.62349 6.54023C4.46113 4.82525 6.86776 3.42208 9.68072 4.23904C11.0219 4.62552 12.192 5.45436 13 6.59012C13.808 5.45436 14.9781 4.62552 16.3193 4.23904C19.126 3.43455 21.5389 4.82525 22.3765 6.54023C23.5517 8.9412 23.0641 11.6415 20.9263 14.5663C19.251 16.8551 16.8569 19.175 13.3813 21.869C13.2722 21.9535 13.1381 21.9996 13 22ZM8.08046 5.25555C7.41113 5.22956 6.74735 5.38592 6.16037 5.70784C5.57338 6.02976 5.08535 6.50508 4.74867 7.08279C3.77977 9.06593 4.21734 11.2736 6.08639 13.8242C8.07269 16.3802 10.3986 18.6545 13 20.5844C15.601 18.6564 17.9269 16.3842 19.9136 13.8305C21.7889 11.2736 22.2202 9.06593 21.2513 7.08902C20.6262 5.84176 18.7509 4.85019 16.6631 5.4364C15.9936 5.63378 15.373 5.96881 14.8412 6.41991C14.3093 6.87102 13.8781 7.42822 13.5751 8.05565C13.528 8.17003 13.4479 8.26786 13.3449 8.33671C13.242 8.40556 13.1208 8.44232 12.9969 8.44232C12.8729 8.44232 12.7518 8.40556 12.6488 8.33671C12.5459 8.26786 12.4658 8.17003 12.4187 8.05565C12.118 7.42665 11.6874 6.86815 11.1553 6.41676C10.6231 5.96537 10.0013 5.63129 9.33066 5.4364C8.92433 5.31866 8.50358 5.2578 8.08046 5.25555Z" fill="black"/>
</svg>
