<svg width="20" height="20" viewBox="0 0 20 20" fill="none" xmlns="http://www.w3.org/2000/svg">
<path fill-rule="evenodd" clip-rule="evenodd" d="M6.3875 1.055C7.365 1.01 7.67667 1 10.1667 1C12.6567 1 12.9683 1.01083 13.945 1.055C14.9217 1.09917 15.5883 1.255 16.1717 1.48083C16.7825 1.71167 17.3367 2.0725 17.795 2.53917C18.2617 2.99667 18.6217 3.55 18.8517 4.16167C19.0783 4.745 19.2333 5.41167 19.2783 6.38667C19.3233 7.36583 19.3333 7.6775 19.3333 10.1667C19.3333 12.6567 19.3225 12.9683 19.2783 13.9458C19.2342 14.9208 19.0783 15.5875 18.8517 16.1708C18.6217 16.7826 18.2611 17.3368 17.795 17.795C17.3367 18.2617 16.7825 18.6217 16.1717 18.8517C15.5883 19.0783 14.9217 19.2333 13.9467 19.2783C12.9683 19.3233 12.6567 19.3333 10.1667 19.3333C7.67667 19.3333 7.365 19.3225 6.3875 19.2783C5.4125 19.2342 4.74583 19.0783 4.1625 18.8517C3.55077 18.6216 2.99652 18.261 2.53833 17.795C2.07198 17.3372 1.7111 16.7832 1.48083 16.1717C1.255 15.5883 1.1 14.9217 1.055 13.9467C1.01 12.9675 1 12.6558 1 10.1667C1 7.67667 1.01083 7.365 1.055 6.38833C1.09917 5.41167 1.255 4.745 1.48083 4.16167C1.71144 3.55007 2.0726 2.99609 2.53917 2.53833C2.9967 2.07208 3.55039 1.7112 4.16167 1.48083C4.745 1.255 5.41167 1.1 6.38667 1.055H6.3875ZM13.8708 2.705C12.9042 2.66083 12.6142 2.65167 10.1667 2.65167C7.71917 2.65167 7.42917 2.66083 6.4625 2.705C5.56833 2.74583 5.08333 2.895 4.76 3.02083C4.3325 3.1875 4.02667 3.385 3.70583 3.70583C3.4017 4.00171 3.16765 4.3619 3.02083 4.76C2.895 5.08333 2.74583 5.56833 2.705 6.4625C2.66083 7.42917 2.65167 7.71917 2.65167 10.1667C2.65167 12.6142 2.66083 12.9042 2.705 13.8708C2.74583 14.765 2.895 15.25 3.02083 15.5733C3.1675 15.9708 3.40167 16.3317 3.70583 16.6275C4.00167 16.9317 4.3625 17.1658 4.76 17.3125C5.08333 17.4383 5.56833 17.5875 6.4625 17.6283C7.42917 17.6725 7.71833 17.6817 10.1667 17.6817C12.615 17.6817 12.9042 17.6725 13.8708 17.6283C14.765 17.5875 15.25 17.4383 15.5733 17.3125C16.0008 17.1458 16.3067 16.9483 16.6275 16.6275C16.9317 16.3317 17.1658 15.9708 17.3125 15.5733C17.4383 15.25 17.5875 14.765 17.6283 13.8708C17.6725 12.9042 17.6817 12.6142 17.6817 10.1667C17.6817 7.71917 17.6725 7.42917 17.6283 6.4625C17.5875 5.56833 17.4383 5.08333 17.3125 4.76C17.1458 4.3325 16.9483 4.02667 16.6275 3.70583C16.3316 3.40173 15.9714 3.16768 15.5733 3.02083C15.25 2.895 14.765 2.74583 13.8708 2.705ZM8.99583 12.9925C9.64971 13.2647 10.3778 13.3014 11.0558 13.0964C11.7337 12.8914 12.3195 12.4574 12.713 11.8685C13.1065 11.2796 13.2834 10.5724 13.2134 9.86759C13.1434 9.16278 12.8308 8.50414 12.3292 8.00417C12.0094 7.68456 11.6227 7.43984 11.1969 7.28762C10.7712 7.1354 10.317 7.07947 9.86708 7.12385C9.41713 7.16822 8.98263 7.31181 8.59484 7.54427C8.20704 7.77674 7.87562 8.09229 7.62442 8.46821C7.37322 8.84413 7.20849 9.27107 7.1421 9.7183C7.0757 10.1655 7.10929 10.6219 7.24045 11.0546C7.37161 11.4873 7.59707 11.8855 7.9006 12.2206C8.20413 12.5557 8.57819 12.8193 8.99583 12.9925ZM6.835 6.835C7.27252 6.39748 7.79193 6.05042 8.36358 5.81363C8.93523 5.57685 9.54792 5.45498 10.1667 5.45498C10.7854 5.45498 11.3981 5.57685 11.9697 5.81363C12.5414 6.05042 13.0608 6.39748 13.4983 6.835C13.9359 7.27252 14.2829 7.79193 14.5197 8.36358C14.7565 8.93523 14.8784 9.54792 14.8784 10.1667C14.8784 10.7854 14.7565 11.3981 14.5197 11.9697C14.2829 12.5414 13.9359 13.0608 13.4983 13.4983C12.6147 14.3819 11.4163 14.8784 10.1667 14.8784C8.91705 14.8784 7.71861 14.3819 6.835 13.4983C5.95139 12.6147 5.45498 11.4163 5.45498 10.1667C5.45498 8.91705 5.95139 7.71861 6.835 6.835ZM15.9233 6.15667C16.0318 6.05439 16.1185 5.9314 16.1786 5.79498C16.2386 5.65856 16.2707 5.51147 16.2728 5.36244C16.275 5.21341 16.2473 5.06546 16.1912 4.92734C16.1352 4.78923 16.052 4.66376 15.9466 4.55837C15.8412 4.45297 15.7158 4.3698 15.5777 4.31376C15.4395 4.25773 15.2916 4.22998 15.1426 4.23215C14.9935 4.23432 14.8464 4.26638 14.71 4.32641C14.5736 4.38645 14.4506 4.47325 14.3483 4.58167C14.1494 4.79252 14.0405 5.0726 14.0447 5.36244C14.049 5.65228 14.166 5.92906 14.371 6.13404C14.5759 6.339 14.8527 6.45602 15.1426 6.46025C15.4324 6.46447 15.7125 6.35557 15.9233 6.15667Z" fill="black"/>
</svg>
